<svg xmlns="http://www.w3.org/2000/svg" width="60" height="60" viewBox="0 0 60 60">
  <g id="basic" transform="translate(-54.142 -47.992)">
    <path id="Path_53" data-name="Path 53" d="M89.571,107.992a2.239,2.239,0,0,1-2.012-1.26L77.035,85.1,55.4,74.576a2.239,2.239,0,0,1,.149-4.092l55.516-22.33a2.239,2.239,0,0,1,2.914,2.914L91.649,106.589a2.239,2.239,0,0,1-2,1.4ZM61.9,72.764l17.79,8.658a2.239,2.239,0,0,1,1.034,1.034l8.658,17.79L107.86,54.263Z" transform="translate(0 0)" fill="#ea5455"/>
    <path id="Path_54" data-name="Path 54" d="M205.962,85.668a2.239,2.239,0,0,1-1.582-3.823L237.57,48.654a2.239,2.239,0,0,1,3.166,3.168l-33.191,33.2A2.239,2.239,0,0,1,205.962,85.668Z" transform="translate(-127.252 -0.006)" fill="#ea5455"/>
  </g>
</svg>
