<svg xmlns="http://www.w3.org/2000/svg" width="13.498" height="13.498" viewBox="0 0 13.498 13.498">
  <g id="calender1" transform="translate(-0.529 -0.529)">
    <path id="path2546" d="M3.224,1.205v.672H1.2a.675.675,0,0,0-.672.677V13.349a.675.675,0,0,0,.672.679H13.35a.675.675,0,0,0,.678-.679V2.555a.675.675,0,0,0-.678-.677H11.327V1.205a.676.676,0,1,0-1.351,0v.672h-5.4V1.205a.675.675,0,1,0-1.35,0ZM1.879,3.227H3.224v.679a.675.675,0,0,0,1.35,0V3.227h5.4v.679a.676.676,0,0,0,1.351,0V3.227h1.35V5.255H1.879Zm0,3.373h10.8v6.077H1.879Zm1.345.677a.676.676,0,0,0,0,1.351h1.35a.676.676,0,1,0,0-1.351Zm3.379,0a.675.675,0,1,0,0,1.351h1.35a.676.676,0,1,0,0-1.351Zm3.373,0a.675.675,0,0,0,0,1.351h1.351a.676.676,0,1,0,0-1.351Zm-6.752,2.7a.675.675,0,0,0,0,1.35h1.35a.675.675,0,1,0,0-1.35Zm3.379,0a.675.675,0,1,0,0,1.35h1.35a.675.675,0,0,0,0-1.35Zm3.373,0a.675.675,0,0,0,0,1.35h1.351a.675.675,0,1,0,0-1.35Z" transform="translate(0 0)" fill="#51667d"/>
  </g>
</svg>
