<svg xmlns="http://www.w3.org/2000/svg" width="42.096" height="42.096" viewBox="0 0 42.096 42.096">
  <g id="call_red" transform="translate(-1159 -484.3)">
    <path id="Path_88298" data-name="Path 88298" d="M72.051,52.568l-9.886-4.216a3.288,3.288,0,0,0-3.183.274l-5.291,3.52a16.126,16.126,0,0,1-7.42-7.378h0l3.5-5.354a3.352,3.352,0,0,0,.3-3.183l-4.237-9.886a3.436,3.436,0,0,0-3.52-2.024A11.847,11.847,0,0,0,32,36.041,30.389,30.389,0,0,0,62.355,66.4a11.847,11.847,0,0,0,11.72-10.308,3.436,3.436,0,0,0-2.024-3.52Z" transform="translate(1127 460)" fill="#ea5455"/>
    <path id="Path_88299" data-name="Path 88299" d="M152.161,35.165A15.3,15.3,0,0,1,162.89,45.894a1.686,1.686,0,0,0,1.623,1.265,1.6,1.6,0,0,0,.443-.063,1.665,1.665,0,0,0,1.181-2.066,18.55,18.55,0,0,0-13.112-13.111,1.686,1.686,0,1,0-.864,3.246Z" transform="translate(1033.273 454.068)" fill="#ea5455"/>
    <path id="Path_88300" data-name="Path 88300" d="M143.861,66.065a8.516,8.516,0,0,1,5.966,5.966,1.665,1.665,0,0,0,1.623,1.265,1.35,1.35,0,0,0,.422-.063,1.665,1.665,0,0,0,1.2-2.066,11.762,11.762,0,0,0-8.347-8.348,1.686,1.686,0,1,0-.864,3.246Z" transform="translate(1039.823 429.682)" fill="#ea5455"/>
  </g>
</svg>
