<svg xmlns="http://www.w3.org/2000/svg" width="17" height="17" viewBox="0 0 17 17">
  <g id="call_ic" transform="translate(-1159 -484.3)">
    <path id="Path_88298" data-name="Path 88298" d="M48.174,35.716l-3.993-1.7a1.328,1.328,0,0,0-1.285.111L40.76,35.546a6.512,6.512,0,0,1-3-2.979h0L39.176,30.4a1.354,1.354,0,0,0,.119-1.285l-1.711-3.993a1.388,1.388,0,0,0-1.422-.817A4.784,4.784,0,0,0,32,29.042,12.273,12.273,0,0,0,44.258,41.3a4.784,4.784,0,0,0,4.733-4.163,1.388,1.388,0,0,0-.817-1.422Z" transform="translate(1127 460)" fill="#002b5b"/>
    <path id="Path_88299" data-name="Path 88299" d="M151.327,33.169A6.18,6.18,0,0,1,155.66,37.5a.681.681,0,0,0,.655.511.647.647,0,0,0,.179-.026.673.673,0,0,0,.477-.834,7.491,7.491,0,0,0-5.3-5.295.681.681,0,1,0-.349,1.311Z" transform="translate(1018.349 453.123)" fill="#002b5b"/>
    <path id="Path_88300" data-name="Path 88300" d="M143.027,64.069a3.439,3.439,0,0,1,2.409,2.409.673.673,0,0,0,.655.511.545.545,0,0,0,.17-.026.672.672,0,0,0,.485-.834,4.75,4.75,0,0,0-3.371-3.371.681.681,0,1,0-.349,1.311Z" transform="translate(1025.942 424.854)" fill="#002b5b"/>
  </g>
</svg>
