<svg xmlns="http://www.w3.org/2000/svg" width="53.969" height="73.335" viewBox="0 0 53.969 73.335">
  <g id="cat1" transform="translate(-98.573 -69.598)">
    <path id="Shape_12" data-name="Shape 12" d="M152.542,124.079c-3.431,15.005-20.99,9.129-26.984,6.636V130.7c-5.994,2.495-23.554,8.376-26.984-6.641,0,0,6.153.066,4.306-19.233,0,0-6.666-38.233,22.678-35.037v.063c29.344-3.193,22.678,35.01,22.678,35.01C146.389,124.145,152.542,124.079,152.542,124.079Z" transform="translate(0 0)" fill="#ea5455"/>
    <path id="body-bg-flat_copy" data-name="body-bg-flat copy" d="M114.26,405.612s-1.113-15.136,13.133-16.549h6.387V386.12a13.325,13.325,0,0,0,9.043.215l.144,2.727h7.464s12.781.5,12.2,16.693Z" transform="translate(-13.031 -263.282)" fill="#fff"/>
    <path id="Rounded_Rectangle_13_copy_4" data-name="Rounded Rectangle 13 copy 4" d="M160.013,418.636H111.228l.232-3.958c.452-7.728,6.541-13.625,13.508-13.625h4.791a3.23,3.23,0,0,0-.7.79h-3.666c-6.715,0-12.584,5.677-13.019,13.115l-.161,2.746h47.676l-.089-2.746c-.436-7.438-6.3-13.115-13.019-13.115h-3.669a3.009,3.009,0,0,0-.618-.79h4.668c6.968,0,13.056,5.9,13.508,13.625l.232,3.958Zm-18.942-16.794h-.251v-.79h.279C141.082,401.258,141.072,401.517,141.071,401.843Zm-10.094-.79h.3v.79h-.258C131.014,401.507,131,401.25,130.977,401.053Z" transform="translate(-10.526 -275.703)" fill="#ea5455" fill-rule="evenodd"/>
    <path id="Ellipse_5" data-name="Ellipse 5" d="M269.742,466.333a.5.5,0,1,1-.5.5A.5.5,0,0,1,269.742,466.333Z" transform="translate(-141.96 -330.003)" fill="#ea5455"/>
    <path id="Ellipse_5_copy" data-name="Ellipse 5 copy" d="M269.742,485.96a.5.5,0,1,1-.5.5A.5.5,0,0,1,269.742,485.96Z" transform="translate(-141.96 -346.329)" fill="#ea5455"/>
    <path id="Shape_2_copy_9" data-name="Shape 2 copy 9" d="M226.225,392.511l-3.66,5.454a2.85,2.85,0,0,0-3.875-1.938v9.115a.508.508,0,0,1-1,0v-9.115a2.844,2.844,0,0,0-3.871,1.938l-3.656-5.454s-1.414-3.6,2.868-5.167v-1.651h.81v5.195c.1.894.72,3.442,4.352,4.278,3.636-.836,4.253-3.384,4.357-4.278v-5.195h.811v1.651C227.641,388.915,226.225,392.511,226.225,392.511Zm-12.453.483a5.189,5.189,0,0,1-.476-.77,6.881,6.881,0,0,1-.27-1.292v-1.82c-.061-.821-.215-.835-.215-.835-3.195,1.574-1.792,4.019-1.792,4.019l2.652,4.162c1.036-1.755,2.151-1.435,2.151-1.435A4.933,4.933,0,0,1,213.772,392.994Zm9.8-4.717s-.154.014-.215.835v1.82a6.877,6.877,0,0,1-.27,1.292,5.182,5.182,0,0,1-.477.77,4.936,4.936,0,0,1-2.052,2.029s1.116-.32,2.153,1.435l2.655-4.162S226.768,389.85,223.57,388.277Z" transform="translate(-92.63 -262.927)" fill="#ea5455" fill-rule="evenodd"/>
    <path id="_2_copy_5" data-name="2 copy 5" d="M181.324,116.467c8.928,0,15.975,8.343,15.746,18.368l-.244,10.654c-.216,9.444-7.154,16.909-15.5,16.909s-15.286-7.465-15.5-16.909l-.243-10.654C165.349,124.81,172.4,116.467,181.324,116.467Z" transform="translate(-55.73 -38.986)" fill="#fff"/>
    <path id="_2_line" data-name="2 line" d="M193.882,129.181l-.255,11.087c-.226,9.828-7.5,17.6-16.244,17.6s-16.017-7.768-16.244-17.6l-.255-11.087c-.24-10.432,7.144-19.114,16.5-19.114S194.123,118.749,193.882,129.181Zm-16.535-17.966c-8.806,0-15.756,8.278-15.53,18.224l.24,10.571c.213,9.37,7.056,16.777,15.29,16.777s15.077-7.407,15.29-16.777l.24-10.571C193.1,119.493,186.154,111.215,177.348,111.215Z" transform="translate(-51.826 -33.662)" fill="#ea5455" fill-rule="evenodd"/>
    <path id="usta" d="M228.912,323.556c-1.3,1.133-4.251,2.21-7.679,2.21s-6.375-1.078-7.679-2.21c0,0-.133-.367.062-.563a.664.664,0,0,1,.512-.156c1.3,1.133,3.675,2.068,7.1,2.068s5.8-.935,7.1-2.068c0,0,.319-.118.474.036A.606.606,0,0,1,228.912,323.556Z" transform="translate(-95.603 -210.607)" fill="#ea5455"/>
    <path id="_-" data-name="-" d="M245.347,350.707h4.593v.717h-4.593Z" transform="translate(-122.086 -233.826)" fill="#ea5455"/>
    <path id="oko" d="M204.968,238.067a1.435,1.435,0,1,1-1.435,1.435A1.435,1.435,0,0,1,204.968,238.067Z" transform="translate(-87.305 -140.132)" fill="#ea5455"/>
    <path id="oko_1" d="M299.688,238.067a1.435,1.435,0,1,1-1.435,1.435A1.435,1.435,0,0,1,299.688,238.067Z" transform="translate(-166.093 -140.132)" fill="#ea5455"/>
    <path id="Ellipse_3_copy" data-name="Ellipse 3 copy" d="M199.219,269.64c1.387,0,2.512.08,2.512,1.651,0,1.62-1.125,1.651-2.512,1.651s-2.512-.3-2.512-1.651C196.707,269.707,197.832,269.64,199.219,269.64Z" transform="translate(-81.627 -166.395)" fill="#f5f3ef"/>
    <path id="Ellipse_3_copy_2" data-name="Ellipse 3 copy 2" d="M298.2,269.64c1.387,0,2.512.08,2.512,1.651,0,1.62-1.125,1.651-2.512,1.651s-2.512-.3-2.512-1.651C295.693,269.707,296.818,269.64,298.2,269.64Z" transform="translate(-163.963 -166.395)" fill="#f5f3ef"/>
    <path id="R_copy" data-name="R copy" d="M282,217.09l.416.528.258.327s4.567-2.522,7.737.388l.338.166s-.781-4.218-7.616-1.751C282.771,216.845,282.395,216.958,282,217.09Z" transform="translate(-152.574 -121.755)" fill="#ea5455"/>
    <path id="L_copy" data-name="L copy" d="M191.739,217.119l-.416.527-.258.327s-4.567-2.517-7.737.387l-.338.165s.781-4.209,7.616-1.747C190.968,216.875,191.345,216.988,191.739,217.119Z" transform="translate(-70.218 -121.781)" fill="#ea5455"/>
    <path id="Rectangle_19" data-name="Rectangle 19" d="M350.307,186.013h3.014v7.177h-3.014Z" transform="translate(-209.391 -96.834)" fill="#ea5455"/>
    <path id="Shape_15" data-name="Shape 15" d="M148.932,118.759s3.17-6.1,9.237-5.133a6.576,6.576,0,0,0,1.545,2.885,8.3,8.3,0,0,1,5.832-4.431,18.941,18.941,0,0,0,6.82-3.563s.517,5.543,7.334,7.086c0,0,5.973.739,5.54-2.562s-3.748-17.666-19.621-15.491-19.6,7.939-16.827,21.064" transform="translate(-41.073 -23.065)" fill="#ea5455"/>
    <path id="Shape_11_copy" data-name="Shape 11 copy" d="M142.236,231.583a1.743,1.743,0,0,0-.505-.243,2.381,2.381,0,0,0-.6-.1c-.058,0-.118,0-.179,0s-.124.006-.188.013a2.309,2.309,0,0,0-.391.076,2.106,2.106,0,0,0-1.388,1.287,4.314,4.314,0,0,0-.292,1.465q-.011.226-.006.474t.025.521c.027.364.077.761.151,1.193a8.873,8.873,0,0,0,.4,2.809,5.291,5.291,0,0,0,3.443,3.788c-.224-3.731-.231-7.531-.465-11.278Z" transform="translate(-33.363 -134.448)" fill="#f7fbfb"/>
    <path id="Shape_3" data-name="Shape 3" d="M141.329,228.143s-3.394-1.051-3.274,2.437c0,0,.505,5.059.725,5.525,0,0,1.333,2.946,3.532,3.076h0l.027.95a5.7,5.7,0,0,1-4.613-4.951l-.589-4.047s-.458-5.356,3.981-3.995h0l.211,1" transform="translate(-32.065 -130.857)" fill="#ea5455"/>
    <path id="Shape_4" data-name="Shape 4" d="M150.256,253.164a.732.732,0,0,1-.353.143.719.719,0,0,1-.351-.143l-.35-3.529s.483-1.738,2.534-.82l.049,1.009s-1.8-.638-1.762.156C150.058,250.745,150.256,253.164,150.256,253.164Z" transform="translate(-42.113 -148.849)" fill="#ea5455"/>
    <path id="Shape_11_copy_1" data-name="Shape 11 copy_1" d="M355.5,231.634a1.756,1.756,0,0,1,.507-.242,2.393,2.393,0,0,1,.6-.1q.088,0,.18,0c.062,0,.125.006.188.013a2.325,2.325,0,0,1,.393.076,2.112,2.112,0,0,1,1.394,1.286,4.3,4.3,0,0,1,.294,1.464q.011.225.006.474t-.025.521c-.028.364-.078.76-.152,1.193a8.826,8.826,0,0,1-.4,2.807,5.3,5.3,0,0,1-3.458,3.786c.225-3.728.232-7.526.467-11.271Z" transform="translate(-213.324 -134.49)" fill="#f7fbfb"/>
    <path id="Shape_3_1" data-name="Shape 3_1" d="M345.856,228.2s3.409-1.051,3.289,2.436c0,0-.508,5.056-.728,5.522,0,0-1.339,2.944-3.548,3.074h0l-.027.949a5.718,5.718,0,0,0,4.633-4.948l.592-4.045s.46-5.353-4-3.992h0l-.212,1" transform="translate(-204.069 -130.902)" fill="#ea5455"/>
    <path id="Shape_4_1" data-name="Shape 4_1" d="M354.581,253.2a.737.737,0,0,0,.355.143.724.724,0,0,0,.352-.143l.352-3.527s-.485-1.737-2.545-.819l-.049,1.009s1.807-.638,1.77.156C354.78,250.782,354.581,253.2,354.581,253.2Z" transform="translate(-211.669 -148.881)" fill="#ea5455"/>
    <path id="new_vector_shape_done" d="M258.385,274.333h.251a9.118,9.118,0,0,1,1,2.727,2.075,2.075,0,0,1-.072,1c-.272.753-1.126.739-1.83,1.077a1.974,1.974,0,0,1-.574.287c-.159-.141-.352-.168-.431-.395-.194-.267.056-.434.251-.538.354-.19,1.448-.377,1.579-.718.162-.184.054-.738,0-.933a10.922,10.922,0,0,0-.395-1.364c-.125-.3-.346-.613-.215-.969A1.875,1.875,0,0,0,258.385,274.333Z" transform="translate(-131.499 -170.298)" fill="#ea5455" fill-rule="evenodd"/>
  </g>
</svg>
