<svg xmlns="http://www.w3.org/2000/svg" width="52.181" height="73.335" viewBox="0 0 52.181 73.335">
  <g id="cat2" transform="translate(-176.758 -45.713)">
    <path id="Path_36" data-name="Path 36" d="M483.375,402.93h.789a1.032,1.032,0,0,0,1.03-1.031.142.142,0,1,0-.285,0,.746.746,0,0,1-.746.746h-.789a.746.746,0,0,1-.746-.746.142.142,0,0,0-.285,0A1.032,1.032,0,0,0,483.375,402.93Z" transform="translate(-280.921 -327.306)" fill="#002b5b"/>
    <path id="Path_37" data-name="Path 37" d="M417.892,340.97c-.362,0-.655.474-.655,1.059s.293,1.06.655,1.06.655-.474.655-1.06S418.254,340.97,417.892,340.97Z" transform="translate(-221.069 -271.426)" fill="#002b5b"/>
    <path id="Path_38" data-name="Path 38" d="M567.416,340.97c-.362,0-.655.474-.655,1.059s.293,1.06.655,1.06.655-.474.655-1.06S567.778,340.97,567.416,340.97Z" transform="translate(-358.524 -271.426)" fill="#002b5b"/>
    <path id="Path_39" data-name="Path 39" d="M546.044,314.239a3.678,3.678,0,0,1,5.19.221.142.142,0,0,0,.208-.195,3.963,3.963,0,0,0-5.593-.234.142.142,0,0,0,.195.208Z" transform="translate(-339.258 -245.702)" fill="#002b5b"/>
    <path id="Path_40" data-name="Path 40" d="M463.978,446.151a.143.143,0,0,0-.142-.142h-6.7a.143.143,0,0,0-.142.142,3.492,3.492,0,1,0,6.983,0Zm-6.644.586a3.2,3.2,0,0,1-.051-.444h6.407a3.2,3.2,0,0,1-.047.418c-.318.218-1.141.546-3.218.546-2,0-2.783-.3-3.091-.52Z" transform="translate(-257.618 -367.986)" fill="#002b5b"/>
    <path id="Path_41" data-name="Path 41" d="M192.713,91.341a22.246,22.246,0,0,0-15.955,21.336v6.371h52.181v-6.371a22.228,22.228,0,0,0-15.4-21.152,20,20,0,0,0-2.271-.706l-.53-.3a.263.263,0,0,0,.113-.217V87.639h9.964a.618.618,0,0,0,.618-.618V80.885a55.4,55.4,0,0,0-.4-7.758,19.306,19.306,0,0,0-.783-3.513,26.311,26.311,0,0,1-1.3-4.762,35.477,35.477,0,0,0-1.054-5.283l0-.025c-1.8-16.525-14.527-13.7-15.044-13.574l-.015,0c-.7-.161-13.25-2.821-15.031,13.584l0,.013a35.481,35.481,0,0,0-1.054,5.283,26.318,26.318,0,0,1-1.3,4.762,19.31,19.31,0,0,0-.783,3.513,55.409,55.409,0,0,0-.4,7.758v6.142a.618.618,0,0,0,.618.618h9.964v2.668a.263.263,0,0,0,.113.217l-.531.306Q193.561,91.047,192.713,91.341Zm1.5,27.427H190.58l-2.889-18.979,4.94-8.126q.78-.278,1.583-.49Zm17.309-27.6q.8.212,1.583.49l4.94,8.127-2.889,18.979h-3.634ZM210.1,87.519a15.192,15.192,0,0,1-14.527-.012V85.125a13.772,13.772,0,0,0,14.543,0ZM216.65,73.4V67.273h.213a2.448,2.448,0,0,1,2.448,2.448v1.522a2.622,2.622,0,0,1-2.622,2.622h-.048C216.647,73.711,216.65,73.556,216.65,73.4Zm-27.631.466a2.622,2.622,0,0,1-2.622-2.622V69.722a2.449,2.449,0,0,1,2.448-2.449h.2V73.4c0,.156,0,.311.009.466Zm.312-.466V67.366c2.839,2.036,6.767,2.134,11.675-.867,4.336-2.651,8.549-3.12,8.557-6.73a10.483,10.483,0,0,0,6.8,7.458V73.4a13.517,13.517,0,1,1-27.034,0Z" fill="#002b5b"/>
  </g>
</svg>
