<svg xmlns="http://www.w3.org/2000/svg" width="54.005" height="73.335" viewBox="0 0 54.005 73.335">
  <g id="cat3" transform="translate(-152.718 -28.411)">
    <path id="Path_31" data-name="Path 31" d="M197.641,77.92V64.7a53.369,53.369,0,0,0-.383-7.473,18.6,18.6,0,0,0-.755-3.384,25.346,25.346,0,0,1-1.254-4.588,34.176,34.176,0,0,0-1.016-5.089l0-.013a24.612,24.612,0,0,0-.824-4.276.136.136,0,0,0,.089-.049c1.5-1.867,1.984-3.373,1.577-4.884-1.164-4.31-7.542-4.81-14.294-5.339a23.966,23.966,0,0,1-3.174-.579,20.407,20.407,0,0,0-3.615-.608,12.887,12.887,0,0,0-10.689,4.989c-2.276,2.889-3.262,6.549-2.512,9.324.085.316.174.723.277,1.195.49,2.248,1.222,5.6,3.02,5.6.033,0,.066,0,.1,0a26.607,26.607,0,0,1-1.212,4.324,18.6,18.6,0,0,0-.755,3.384,53.371,53.371,0,0,0-.383,7.473V77.891a22.57,22.57,0,0,0-3.556,3.127,20.76,20.76,0,0,0-5.566,14.053v6.538a.137.137,0,0,0,.137.137h53.73a.137.137,0,0,0,.137-.137V95.071a20.76,20.76,0,0,0-5.566-14.053,22.566,22.566,0,0,0-3.516-3.1ZM164.095,49.25c-1.582,0-2.286-3.225-2.757-5.384-.1-.475-.193-.885-.28-1.208-.728-2.695.239-6.26,2.463-9.083a12.6,12.6,0,0,1,10.067-4.89c.131,0,.264,0,.4.006a20.239,20.239,0,0,1,3.562.6,24.133,24.133,0,0,0,3.213.585c6.653.521,12.937,1.014,14.051,5.137.377,1.4-.074,2.807-1.464,4.563a19.649,19.649,0,0,0-5.073-1.028,73.69,73.69,0,0,0-14.781.74c-3.713.646-5.33,3.954-6.63,6.613-.836,1.71-1.559,3.187-2.6,3.336a1.216,1.216,0,0,1-.173.012Zm-2.889,42.831a1.58,1.58,0,0,0-1.058,1.516v7.874h-7.156v-6.4A20.486,20.486,0,0,1,158.486,81.2a22.633,22.633,0,0,1,6.463-4.867,18.669,18.669,0,0,1,.8,4.451C165.753,86.191,165.873,90.561,161.206,92.081Zm5.2-34.14a2.526,2.526,0,0,1-2.526-2.526V53.949a2.359,2.359,0,0,1,2.359-2.359h.206v5.9c0,.15,0,.3.008.449Zm20.312,14.88a13.777,13.777,0,0,1-13.993-.025V68.782a13.264,13.264,0,0,0,13.993.021Zm6.043-15.329a13.021,13.021,0,1,1-26.042,0V53.178c4.743-1.553,6.185-7.01,6.489-8.46.3,3.12,4.544,3.167,8.225,6.126a14.544,14.544,0,0,0,1.643,1.151c3.908,2.63,7.261,2.9,9.685,1.22Zm.266.449c0-.149.008-.3.008-.449v-5.9h.206a2.359,2.359,0,0,1,2.359,2.359v1.466a2.526,2.526,0,0,1-2.526,2.526Zm13.423,43.53h-7.156V93.6a1.58,1.58,0,0,0-1.058-1.516c-4.667-1.521-4.547-5.891-4.547-11.294a18.669,18.669,0,0,1,.8-4.45,22.632,22.632,0,0,1,6.463,4.867,20.487,20.487,0,0,1,5.493,13.867Z" fill="#ea5455"/>
    <path id="Path_32" data-name="Path 32" d="M483.571,416.577h.76a.994.994,0,0,0,.993-.993.137.137,0,1,0-.275,0,.719.719,0,0,1-.718.718h-.76a.719.719,0,0,1-.718-.718.137.137,0,0,0-.275,0A.994.994,0,0,0,483.571,416.577Z" transform="translate(-304.213 -356.942)" fill="#ea5455"/>
    <ellipse id="Ellipse_17" data-name="Ellipse 17" cx="0.631" cy="1.021" rx="0.631" ry="1.021" transform="translate(173.166 53.778)" fill="#ea5455"/>
    <path id="Path_33" data-name="Path 33" d="M382.613,327.91a.137.137,0,1,0,.2.188,3.543,3.543,0,0,1,5-.213.137.137,0,0,0,.188-.2A3.818,3.818,0,0,0,382.613,327.91Z" transform="translate(-211.986 -275.077)" fill="#ea5455"/>
    <path id="Path_34" data-name="Path 34" d="M565.861,354.66c-.349,0-.631.457-.631,1.021s.283,1.021.631,1.021.631-.457.631-1.021S566.21,354.66,565.861,354.66Z" transform="translate(-380.438 -300.882)" fill="#ea5455"/>
    <path id="Path_35" data-name="Path 35" d="M463.331,460.561h-6.452a.137.137,0,0,0-.137.137,3.363,3.363,0,1,0,6.727,0A.137.137,0,0,0,463.331,460.561Zm-.185.677a5.814,5.814,0,0,1-3.1.526,5.541,5.541,0,0,1-2.978-.5,3.083,3.083,0,0,1-.049-.428h6.172a3.084,3.084,0,0,1-.045.4Z" transform="translate(-280.385 -398.549)" fill="#ea5455"/>
  </g>
</svg>
