<svg id="cat4" xmlns="http://www.w3.org/2000/svg" width="58.314" height="73.335" viewBox="0 0 58.314 73.335">
  <path id="Path_88315" data-name="Path 88315" d="M24.523,1.444C27.835-.8,31.607-.3,34.722,2.071A8.192,8.192,0,0,1,36.793,4.4c.471.794,1.3,2.417-.245,2.668-.609.1-1.671-.728-2.495-1A16,16,0,0,0,30.837,5.4a15.631,15.631,0,0,0-5.676.43,18.042,18.042,0,0,0-2.674.961c-.4.185-1.217.728-1.438.03C20.53,5.2,23.335,2.25,24.523,1.444ZM11.948,53.187a.325.325,0,1,1-.466-.454,6.681,6.681,0,0,1,1.158-.949,7.671,7.671,0,0,1,1.432-.728.323.323,0,0,1,.233.6,6.768,6.768,0,0,0-1.313.668,6.409,6.409,0,0,0-1.044.859ZM39.574,44.8c4.518,1.749,8.146,3.091,11.56,5.234a10.3,10.3,0,0,1,4.178,4.04c1.868,3.5,2.071,6.648,2.351,10.45l.651,8.809H48.86l-1.068-8.075-.77,8.075H33.6A21.283,21.283,0,0,0,28.557,68.5a9.625,9.625,0,0,0,2.626-2.166,9.749,9.749,0,0,0,1.778-1.7c.967-1.241,1.277-2.148.406-3.545-.149-.239-.507-.167-.782-.286-.245-.107-.382-.436-.865-.263-.245-.084-.1-.471-.161-.609s-.137-.209-.227-.215a.837.837,0,0,0-.519.31,3.413,3.413,0,0,0-.531.9,10.662,10.662,0,0,1-.448.991c-.621,1.158-.818,1.146-1.934,1.623a9.18,9.18,0,0,1-2.232.746,3.733,3.733,0,0,1-1.969-.776l-1.176-.621c2.029-1.122,2.859-2.8,2.566-4.566-.286-1.713-.788-1.54-1.408-2.6a5.538,5.538,0,0,1-.585-1.761,6.049,6.049,0,0,0-.782-1.558c-2.853-3.963-9.292-3.581-12.312.107C7.9,55.1,7.937,59.555,9.579,62.324a5.182,5.182,0,0,0,3.288,2.447c.7.209,1.874.2,2.089.621-1.116,4.476.686,6.816,3.652,7.943h-5.58L12,65.261l-.8,8.075H0l.651-8.809c.28-3.8.483-6.947,2.351-10.45a10.3,10.3,0,0,1,4.178-4.04c3.414-2.143,7.006-3.473,11.518-5.222,2.369,9.662,20.876,6.947,20.876-.012ZM26.725,40.475a.506.506,0,0,1,.955-.334.88.88,0,0,0,.531.471,2.242,2.242,0,0,0,.818.161,2.471,2.471,0,0,0,.847-.125,1.087,1.087,0,0,0,.668-.537.505.505,0,0,1,.931.394,2.044,2.044,0,0,1-1.259,1.1A3.574,3.574,0,0,1,29,41.788a3.372,3.372,0,0,1-1.188-.245,1.856,1.856,0,0,1-1.092-1.068Zm7.675-8.91-.585.722a.505.505,0,0,1-.788-.633l.406-.5a.506.506,0,0,1,.579-.83,3.215,3.215,0,0,0,1.725.382,3.486,3.486,0,0,0,1.778-.46.506.506,0,0,1,.543.853l-.048.03.454.5a.507.507,0,1,1-.752.68l-.7-.77a5.049,5.049,0,0,1-.728.137v.71a.507.507,0,0,1-1.015,0V31.7a5.106,5.106,0,0,1-.871-.131Zm-13.309.012-.573.7a.505.505,0,1,1-.788-.633l.388-.483-.012-.012a.507.507,0,1,1,.567-.841,3.237,3.237,0,0,0,1.689.406.465.465,0,0,1,.131-.018.661.661,0,0,1,.113.012,3.678,3.678,0,0,0,1.683-.448.507.507,0,1,1,.507.877l-.03.018.412.454a.507.507,0,1,1-.752.68l-.674-.74a5.3,5.3,0,0,1-.758.137v.686a.507.507,0,1,1-1.015,0v-.668a3.8,3.8,0,0,1-.889-.131ZM33.9,28.223a.505.505,0,0,1-.585-.824,5.079,5.079,0,0,1,2.924-1.027,5.188,5.188,0,0,1,2.99,1.021.507.507,0,1,1-.573.836,4.2,4.2,0,0,0-2.411-.841,3.97,3.97,0,0,0-2.345.836Zm-14.24,0a.505.505,0,0,1-.585-.824A5.079,5.079,0,0,1,22,26.373a5.188,5.188,0,0,1,2.99,1.021.507.507,0,1,1-.573.836,4.2,4.2,0,0,0-2.411-.841,4,4,0,0,0-2.345.836Zm-6.4-2.507a.779.779,0,0,1,.466-.119,19.117,19.117,0,0,1-.179-4.452c.155-4.243,1.229-7.633,4.572-10.575,5.043-4.44,15.034-4.828,20.59-1a12.355,12.355,0,0,1,2.28,2.029c2.256,2.584,4.261,8.266,4.219,11.769a8.254,8.254,0,0,1-.418,2.471c-.012.084-.03.173-.054.275a4.7,4.7,0,0,1,1.438,1.385,4.364,4.364,0,0,1,.692,2.674,6.254,6.254,0,0,1-.943,2.847,10.283,10.283,0,0,1-3.05,3.109,28.568,28.568,0,0,1-4.858,7.77,14.909,14.909,0,0,1-5.747,4.142,9.17,9.17,0,0,1-6.923-.155,13.563,13.563,0,0,1-3.808-2.495A18.513,18.513,0,0,1,18.352,41.5a31.471,31.471,0,0,1-2.417-4.768,6.891,6.891,0,0,1-.913-.346,5.9,5.9,0,0,1-1.128-.68,6.136,6.136,0,0,1-2.053-2.966,9.071,9.071,0,0,1-.334-4.011,4.813,4.813,0,0,1,.561-1.761,3.6,3.6,0,0,1,1.2-1.253ZM14.1,27l-.018.012a2.03,2.03,0,0,0-.68.722,3.3,3.3,0,0,0-.376,1.2,7.464,7.464,0,0,0,.269,3.324,4.58,4.58,0,0,0,1.528,2.232,4.854,4.854,0,0,0,.847.513,5.57,5.57,0,0,0,1.009.352.766.766,0,0,1,.531.46,30.189,30.189,0,0,0,2.435,4.876,16.943,16.943,0,0,0,2.924,3.563,12.046,12.046,0,0,0,3.372,2.22,7.677,7.677,0,0,0,5.8.131,13.381,13.381,0,0,0,5.138-3.73,27.056,27.056,0,0,0,4.667-7.55.782.782,0,0,1,.3-.358,8.942,8.942,0,0,0,2.763-2.739,4.717,4.717,0,0,0,.722-2.137,2.836,2.836,0,0,0-.442-1.749,2.971,2.971,0,0,0-.692-.734,26.644,26.644,0,0,1-2.8,4.751V24.511c-3.6-1.665-5.95-5.329-7.15-10.838-1.432,10.486-14.305,10.032-17.54,11.942v6.117A27.623,27.623,0,0,1,15.057,29.1,12.738,12.738,0,0,1,14.1,27Z" transform="translate(0 0)" fill="#002b5b" fill-rule="evenodd"/>
</svg>
