<svg xmlns="http://www.w3.org/2000/svg" width="55.024" height="67.08" viewBox="0 0 55.024 67.08">
  <g id="cat5" transform="translate(-0.002)">
    <path id="Path_88316" data-name="Path 88316" d="M83.874,80.676a2.28,2.28,0,0,1,.863-.811,5.964,5.964,0,0,1,2.692-.605c1.829,0,4.457.734,6.891,4.135a42.737,42.737,0,0,0-6.44-10.162A16.474,16.474,0,0,0,84.2,69.87a59.622,59.622,0,0,1-4.675,7.3,22.334,22.334,0,0,1,4.354,3.5Z" transform="translate(-40.854 -37.579)" fill="#ea5455"/>
    <path id="Path_88317" data-name="Path 88317" d="M57.7,80.222a5.912,5.912,0,0,1,2.692.605,2.1,2.1,0,0,1,.7.605A21.863,21.863,0,0,1,81.8,75.624a56.814,56.814,0,0,0,5.01-7.548,32.883,32.883,0,0,0-10.3-1.546c-8.076,0-15.16,2.576-19.2,7.136a38.5,38.5,0,0,0-6.9,11.18C53,81.033,55.8,80.222,57.7,80.222Z" transform="translate(-49.241 -38.542)" fill="#ea5455"/>
    <path id="Path_88318" data-name="Path 88318" d="M58.94,80.44Z" transform="translate(-46.782 -34.535)" fill="#ea5455"/>
    <path id="Path_88319" data-name="Path 88319" d="M74.113,74.85a19.6,19.6,0,0,0-15.173,7.2,8.488,8.488,0,0,1,2.924,3.3,15.456,15.456,0,0,1,24.73.309,7.367,7.367,0,0,1,2.847-3.387A19.616,19.616,0,0,0,74.113,74.85Z" transform="translate(-46.782 -36.145)" fill="#ea5455"/>
    <path id="Path_88320" data-name="Path 88320" d="M51.071,92.622a11.193,11.193,0,0,0,3.491,1.855,38,38,0,0,1,7.02-3.7c2.666-4.56.721-6.685-.992-7.844-1.378-.94-2.473-2.872-.992-3.658a3.723,3.723,0,0,0-1.636-.348c-1.378,0-3.426.657-5.435,3.735C48.2,89.324,49.28,91.3,51.071,92.622Z" transform="translate(-49.5 -34.97)" fill="#ea5455"/>
    <path id="Path_88321" data-name="Path 88321" d="M89.9,94.485a10.91,10.91,0,0,0,3.748-1.855c1.8-1.288,2.872-3.349-1.455-10-2.009-3.078-4.057-3.735-5.435-3.735a3.722,3.722,0,0,0-1.636.348c1.481.786.386,2.718-.992,3.658-1.739,1.172-3.709,3.349-.876,8.037A37.791,37.791,0,0,1,89.9,94.485Z" transform="translate(-40.191 -34.979)" fill="#ea5455"/>
    <path id="Path_88322" data-name="Path 88322" d="M101.03,96.487a38.641,38.641,0,0,0-49.473.322c-.283.245-.567.489-.837.747l1.842,1.971a35.871,35.871,0,0,1,46.884-.837l.94.837,1.842-1.971C101.841,97.182,101.429,96.835,101.03,96.487Z" transform="translate(-49.149 -32.447)" fill="#ea5455"/>
    <circle id="Ellipse_90" data-name="Ellipse 90" cx="12.932" cy="12.932" r="12.932" transform="translate(14.696 0)" fill="#ea5455"/>
  </g>
</svg>
