<svg xmlns="http://www.w3.org/2000/svg" width="14.875" height="13.523" viewBox="0 0 14.875 13.523">
  <g id="category_ic" transform="translate(-1 -2)">
    <path id="Path_50" data-name="Path 50" d="M1.676,5A.676.676,0,0,0,1,5.676v4.733a.676.676,0,0,0,.592.671L7,11.756a.682.682,0,0,0,.084.005h2.7a.681.681,0,0,0,.084-.005l5.409-.676a.676.676,0,0,0,.592-.671V5.676A.676.676,0,0,0,15.2,5ZM7.085,8.719a.676.676,0,0,0-.676.676v3.381a.676.676,0,0,0,.676.676h2.7a.676.676,0,0,0,.676-.676V9.395a.676.676,0,0,0-.676-.676Z" transform="translate(0 -0.972)" fill="#002b5b" fill-rule="evenodd"/>
    <path id="Path_51" data-name="Path 51" d="M8,3.69A1.69,1.69,0,0,1,9.69,2h2.028a1.69,1.69,0,0,1,1.69,1.69V4.7H12.057V3.69a.338.338,0,0,0-.338-.338H9.69a.338.338,0,0,0-.338.338V4.7H8Z" transform="translate(-2.267)" fill="#002b5b" fill-rule="evenodd"/>
    <path id="Path_52" data-name="Path 52" d="M2,18.571V13.5H3.352v4.395H14.17V13.5h1.352v5.071a.676.676,0,0,1-.676.676H2.676A.676.676,0,0,1,2,18.571Z" transform="translate(-0.324 -3.724)" fill="#002b5b" fill-rule="evenodd"/>
  </g>
</svg>
