<svg xmlns="http://www.w3.org/2000/svg" width="22.3" height="22.343" viewBox="0 0 22.3 22.343">
  <g id="chack" transform="translate(0.002 0.009)">
    <path id="Path_58" data-name="Path 58" d="M5.093,9.773l2.962-.038A11,11,0,0,1,11.1,12.328,41.049,41.049,0,0,1,18.88,2.87h2.256A68.319,68.319,0,0,0,11.2,17.2,17.948,17.948,0,0,0,5.093,9.773ZM21.655,7.424l-1.78.682a7.679,7.679,0,0,1,.225.742,9.336,9.336,0,0,1-.267,5.495,9.016,9.016,0,0,1-1.316,2.406,8.892,8.892,0,0,1-1.967,1.882h0q-.425.3-.862.544t-.9.451a9.514,9.514,0,0,1-2.069.647,9.008,9.008,0,0,1-2.124.149l-.229-.013-.5,1.869.342.025a10.9,10.9,0,0,0,2.713-.135,11.376,11.376,0,0,0,2.638-.805c.356-.158.709-.335,1.06-.533s.682-.407,1.022-.645a10.836,10.836,0,0,0,3.989-5.2,11.223,11.223,0,0,0,.318-6.617c-.078-.32-.178-.629-.289-.945ZM4.407,20.061a10.791,10.791,0,0,0,2.084,1.276l.307.144.5-1.864-.209-.105a8.944,8.944,0,0,1-1.522-.96,9.059,9.059,0,0,1-1.318-1.26l-.155-.178-1.667.962.215.26a11.144,11.144,0,0,0,1.766,1.726ZM.1,12.635a10.807,10.807,0,0,0,.616,2.391l.12.313,1.667-.962-.08-.224a9.1,9.1,0,0,1-.436-1.767,8.864,8.864,0,0,1-.069-1.811l.015-.235-1.862-.5-.031.338A10.7,10.7,0,0,0,.1,12.635Zm1.42-7.011c-.165.282-.318.565-.455.855l-.149.309,1.864.5.105-.205c.105-.205.216-.405.335-.6s.245-.389.38-.576a10.884,10.884,0,0,1,.709-.9,9.818,9.818,0,0,1,.782-.8l.169-.156L4.3,2.384l-.262.227A12.338,12.338,0,0,0,2.991,3.639,13.194,13.194,0,0,0,2.054,4.8q-.289.406-.533.82ZM9.169.135a9.867,9.867,0,0,0-1.849.5L7,.751,7.967,2.42l.222-.078A8.127,8.127,0,0,1,11.044,1.9c.22.005.453.02.689.047s.456.06.68.105.464.1.691.169.455.145.689.236h0A.953.953,0,1,0,14.484.68q-.417-.161-.847-.289c-.287-.084-.567-.155-.845-.209s-.562-.1-.838-.131S11.384,0,11.089-.007a10.463,10.463,0,0,0-1.92.142Z" transform="translate(0)" fill="#002b5b" fill-rule="evenodd"/>
  </g>
</svg>
