<svg xmlns="http://www.w3.org/2000/svg" width="16.645" height="16.677" viewBox="0 0 16.645 16.677">
  <g id="check_red" transform="translate(0.002 0.008)">
    <path id="Path_58" data-name="Path 58" d="M3.8,7.293l2.211-.029A8.208,8.208,0,0,1,8.287,9.2a30.64,30.64,0,0,1,5.8-7.06h1.684a50.994,50.994,0,0,0-7.418,10.7A13.4,13.4,0,0,0,3.8,7.293ZM16.163,5.539l-1.329.509A5.732,5.732,0,0,1,15,6.6a6.968,6.968,0,0,1-.2,4.1,6.73,6.73,0,0,1-.983,1.8,6.637,6.637,0,0,1-1.468,1.4h0q-.318.222-.643.406t-.673.337a7.1,7.1,0,0,1-1.544.483A6.724,6.724,0,0,1,7.9,15.24l-.171-.009-.373,1.4.255.019a8.137,8.137,0,0,0,2.025-.1,8.492,8.492,0,0,0,1.969-.6c.266-.118.529-.25.791-.4s.509-.3.763-.482a8.088,8.088,0,0,0,2.978-3.88,8.377,8.377,0,0,0,.238-4.939c-.058-.239-.133-.47-.216-.706ZM3.289,14.972a8.054,8.054,0,0,0,1.555.953l.229.107.373-1.391-.156-.079a6.676,6.676,0,0,1-1.136-.717,6.762,6.762,0,0,1-.984-.941l-.115-.133-1.245.718.16.194a8.318,8.318,0,0,0,1.318,1.288ZM.075,9.429a8.066,8.066,0,0,0,.46,1.785l.09.233,1.245-.718-.06-.167a6.79,6.79,0,0,1-.326-1.319,6.617,6.617,0,0,1-.052-1.352l.011-.175L.054,7.342.03,7.594A7.983,7.983,0,0,0,.075,9.429ZM1.135,4.2c-.124.21-.238.422-.339.638l-.111.231,1.391.373.079-.153c.079-.153.162-.3.25-.447s.183-.29.284-.43a8.124,8.124,0,0,1,.529-.669A7.328,7.328,0,0,1,3.8,3.144l.126-.117-.721-1.25-.2.17a9.209,9.209,0,0,0-.779.767,9.848,9.848,0,0,0-.7.87q-.216.3-.4.612ZM6.843.1A7.365,7.365,0,0,0,5.463.47L5.227.559,5.946,1.8l.166-.058a6.066,6.066,0,0,1,2.131-.331c.164,0,.338.015.514.035s.341.045.508.079.346.076.516.126.339.109.514.176h0A.711.711,0,1,0,10.81.506Q10.5.386,10.178.29C9.964.227,9.755.175,9.547.134s-.419-.075-.626-.1S8.5,0,8.277-.007A7.81,7.81,0,0,0,6.843.1Z" transform="translate(0)" fill="#ea5455" fill-rule="evenodd"/>
  </g>
</svg>
