<svg id="checked" xmlns="http://www.w3.org/2000/svg" width="34.831" height="34.831" viewBox="0 0 34.831 34.831">
  <path id="Path_79" data-name="Path 79" d="M31.939,26.29l4.249-.057.317.082a16.352,16.352,0,0,1,2.421,1.7,16.6,16.6,0,0,1,1.559,1.508,61.476,61.476,0,0,1,4.864-6.775,58.3,58.3,0,0,1,5.967-6.208l.414-.159h4.637l-.935,1.037A99.375,99.375,0,0,0,47.6,27.31a96.705,96.705,0,0,0-6.338,10.542l-.584,1.125-.536-1.145a27.877,27.877,0,0,0-3.583-5.808,23.432,23.432,0,0,0-4.966-4.6l.349-1.137Z" transform="translate(-22.636 -11.737)" fill="#39b54a"/>
  <path id="Path_80" data-name="Path 80" d="M17.415,0a17.375,17.375,0,0,1,7.543,1.712c-.935.74-1.8,1.448-2.611,2.134a14.421,14.421,0,1,0,9.235,10.8c.748-.975,1.516-1.95,2.3-2.914A17.42,17.42,0,1,1,17.415,0Z" fill="#ea5455"/>
</svg>
