<svg xmlns="http://www.w3.org/2000/svg" width="19.962" height="20" viewBox="0 0 19.962 20">
  <g id="check_gray" transform="translate(0.002 0.008)">
    <path id="Path_58" data-name="Path 58" d="M4.558,8.748,7.21,8.713a9.844,9.844,0,0,1,2.729,2.321A36.744,36.744,0,0,1,16.9,2.568h2.02a61.154,61.154,0,0,0-8.9,12.828A16.066,16.066,0,0,0,4.558,8.748Zm14.826-2.1-1.593.61a6.874,6.874,0,0,1,.2.664,8.357,8.357,0,0,1-.239,4.919,8.071,8.071,0,0,1-1.178,2.153,7.959,7.959,0,0,1-1.761,1.685h0q-.381.266-.771.487t-.807.4a8.517,8.517,0,0,1-1.852.579,8.063,8.063,0,0,1-1.9.133l-.205-.011L8.828,19.94l.306.023a9.758,9.758,0,0,0,2.428-.12,10.183,10.183,0,0,0,2.362-.721c.319-.142.635-.3.949-.477s.61-.365.915-.578a9.7,9.7,0,0,0,3.571-4.653,10.046,10.046,0,0,0,.285-5.923c-.07-.286-.16-.563-.259-.846ZM3.945,17.956A9.659,9.659,0,0,0,5.81,19.1l.275.129.448-1.668-.187-.094a8.006,8.006,0,0,1-1.362-.859A8.109,8.109,0,0,1,3.8,15.478l-.138-.16-1.492.861.192.233a9.975,9.975,0,0,0,1.58,1.545ZM.091,11.309a9.674,9.674,0,0,0,.552,2.14l.107.28,1.492-.861-.072-.2a8.143,8.143,0,0,1-.391-1.582,7.935,7.935,0,0,1-.062-1.621l.013-.21L.065,8.806l-.028.3a9.573,9.573,0,0,0,.054,2.2ZM1.362,5.034c-.148.252-.285.506-.407.765l-.133.277,1.668.448.094-.184c.094-.184.194-.363.3-.535s.22-.348.34-.516a9.743,9.743,0,0,1,.635-.8,8.788,8.788,0,0,1,.7-.713l.151-.14-.864-1.5-.234.2a11.044,11.044,0,0,0-.934.92A11.81,11.81,0,0,0,1.839,4.3q-.259.364-.477.734ZM8.207.12A8.833,8.833,0,0,0,6.552.566L6.269.672l.863,1.494.2-.07a7.275,7.275,0,0,1,2.555-.4c.2,0,.405.018.617.042s.409.054.609.094.415.091.618.151.407.13.617.212h0a.853.853,0,1,0,.617-1.59q-.374-.144-.758-.259C11.949.275,11.7.211,11.45.162s-.5-.09-.75-.117S10.19,0,9.926-.007A9.366,9.366,0,0,0,8.207.12Z" transform="translate(0)" fill="#51667d" fill-rule="evenodd"/>
  </g>
</svg>
