<svg xmlns="http://www.w3.org/2000/svg" width="46.721" height="46.721" viewBox="0 0 46.721 46.721">
  <g id="create_account" transform="translate(-10.8 -10.8)">
    <g id="Icon-Pencil" transform="translate(10.8 10.8)">
      <path id="Fill-168" d="M-168.2-324.935l4-16.115,24.55-24.55,12.113,12.113-24.55,24.55-16.115,4Zm6.814-14.6-2.6,10.383,10.383-2.6,21.847-21.847-7.787-7.787-21.847,21.847Z" transform="translate(168.2 371.657)" fill="#fff"/>
      <path id="Fill-169" d="M-155.056-331.728a11.8,11.8,0,0,0-8.544-8.544l.757-3.028a14.566,14.566,0,0,1,10.707,10.707l-2.92.865" transform="translate(168.575 373.474)" fill="#fff"/>
      <path id="Fill-170" d="M-155.837-336.307-158-338.578l21.522-21.522,2.163,2.163-21.522,21.63" transform="translate(169.031 372.105)" fill="#fff"/>
      <path id="Fill-171" d="M-166.2-329.641l4.759-1.19a4.971,4.971,0,0,0-3.569-3.569l-1.19,4.759" transform="translate(168.363 374.2)" fill="#fff"/>
      <path id="Fill-172" d="M-128.587-354.22-140.7-366.333l4.867-4.867.757.108a13.08,13.08,0,0,1,11.248,11.248l.108.757-4.867,4.867Zm-7.679-12.113,7.787,7.787,1.514-1.514a10.242,10.242,0,0,0-7.787-7.787l-1.514,1.514Z" transform="translate(170.442 371.2)" fill="#fff"/>
    </g>
  </g>
</svg>
