<svg xmlns="http://www.w3.org/2000/svg" width="17" height="12.75" viewBox="0 0 17 12.75">
  <path id="email_ic" d="M8.5,73.563a2.538,2.538,0,0,1-1.566-.545L0,67.626v7.53A1.594,1.594,0,0,0,1.594,76.75H15.406A1.594,1.594,0,0,0,17,75.156v-7.53l-6.933,5.4A2.557,2.557,0,0,1,8.5,73.563ZM.541,66.7l7.046,5.482a1.488,1.488,0,0,0,1.828,0L16.46,66.7A1.5,1.5,0,0,0,17,65.594,1.594,1.594,0,0,0,15.406,64H1.594A1.594,1.594,0,0,0,0,65.594,1.4,1.4,0,0,0,.541,66.7Z" transform="translate(0 -64)" fill="#002b5b"/>
</svg>
