<svg xmlns="http://www.w3.org/2000/svg" width="40.097" height="30.073" viewBox="0 0 40.097 30.073">
  <path id="email_blue" d="M20.048,86.554a5.986,5.986,0,0,1-3.693-1.285L0,72.552V90.313a3.76,3.76,0,0,0,3.759,3.759H36.338A3.759,3.759,0,0,0,40.1,90.313V72.552L23.745,85.278A6.032,6.032,0,0,1,20.048,86.554ZM1.276,70.367,17.894,83.3a3.511,3.511,0,0,0,4.312,0l16.618-12.93A3.538,3.538,0,0,0,40.1,67.759,3.76,3.76,0,0,0,36.338,64H3.759A3.759,3.759,0,0,0,0,67.759,3.306,3.306,0,0,0,1.276,70.367Z" transform="translate(0 -64)" fill="#002b5b"/>
</svg>
