<svg xmlns="http://www.w3.org/2000/svg" width="55" height="55.165" viewBox="0 0 55 55.165">
  <g id="expire_ic" transform="translate(-4 -3.64)">
    <ellipse id="Ellipse_74" data-name="Ellipse 74" cx="27.5" cy="27.583" rx="27.5" ry="27.583" transform="translate(4 3.64)" fill="#ea5455"/>
    <rect id="Rectangle_3316" data-name="Rectangle 3316" width="31.909" height="29.42" transform="translate(15.545 17.042)" fill="#fff"/>
    <rect id="Rectangle_3317" data-name="Rectangle 3317" width="27.587" height="19.86" transform="translate(17.704 24.43)" fill="#002b5b"/>
    <rect id="Rectangle_3318" data-name="Rectangle 3318" width="4.657" height="3.176" transform="translate(26.192 26.098)" fill="#fff"/>
    <rect id="Rectangle_3319" data-name="Rectangle 3319" width="4.657" height="3.176" transform="translate(32.151 26.098)" fill="#fff"/>
    <rect id="Rectangle_3320" data-name="Rectangle 3320" width="4.657" height="3.176" transform="translate(38.109 26.098)" fill="#fff"/>
    <rect id="Rectangle_3321" data-name="Rectangle 3321" width="4.657" height="3.176" transform="translate(20.234 30.544)" fill="#fff"/>
    <rect id="Rectangle_3322" data-name="Rectangle 3322" width="4.657" height="3.176" transform="translate(26.192 30.544)" fill="#fff"/>
    <rect id="Rectangle_3323" data-name="Rectangle 3323" width="4.657" height="3.176" transform="translate(32.151 30.544)" fill="#fff"/>
    <rect id="Rectangle_3324" data-name="Rectangle 3324" width="4.657" height="3.176" transform="translate(38.109 30.544)" fill="#fff"/>
    <rect id="Rectangle_3325" data-name="Rectangle 3325" width="4.657" height="3.176" transform="translate(20.234 34.995)" fill="#fff"/>
    <rect id="Rectangle_3326" data-name="Rectangle 3326" width="4.657" height="3.176" transform="translate(26.192 34.995)" fill="#fff"/>
    <rect id="Rectangle_3327" data-name="Rectangle 3327" width="4.657" height="3.176" transform="translate(32.151 34.995)" fill="#fff"/>
    <rect id="Rectangle_3328" data-name="Rectangle 3328" width="4.657" height="3.176" transform="translate(38.109 34.995)" fill="#fff"/>
    <rect id="Rectangle_3329" data-name="Rectangle 3329" width="4.657" height="3.176" transform="translate(20.234 39.44)" fill="#fff"/>
    <rect id="Rectangle_3330" data-name="Rectangle 3330" width="4.657" height="3.176" transform="translate(26.192 39.44)" fill="#fff"/>
    <rect id="Rectangle_3331" data-name="Rectangle 3331" width="4.657" height="3.176" transform="translate(32.151 39.44)" fill="#fff"/>
    <rect id="Rectangle_3332" data-name="Rectangle 3332" width="13.796" height="3.566" transform="translate(17.704 19.067)" fill="#002b5b"/>
    <rect id="Rectangle_3333" data-name="Rectangle 3333" width="2.328" height="3.176" transform="translate(19.07 14.099)" fill="#fff"/>
    <rect id="Rectangle_3334" data-name="Rectangle 3334" width="2.328" height="3.176" transform="translate(42.967 14.099)" fill="#fff"/>
  </g>
</svg>
