<svg id="facebook" xmlns="http://www.w3.org/2000/svg" width="38" height="38" viewBox="0 0 38 38">
  <path id="Path_62" data-name="Path 62" d="M38,19A19,19,0,1,0,16.031,37.769V24.492H11.207V19h4.824V14.814c0-4.762,2.837-7.392,7.177-7.392a29.217,29.217,0,0,1,4.253.371v4.676h-2.4a2.746,2.746,0,0,0-3.1,2.967V19h5.27L26.4,24.492H21.969V37.769A19,19,0,0,0,38,19Z" fill="#1877f2"/>
  <path id="Path_63" data-name="Path 63" d="M166.189,117.07l.842-5.492h-5.27v-3.564a2.746,2.746,0,0,1,3.1-2.967h2.4v-4.676A29.219,29.219,0,0,0,163,100c-4.34,0-7.177,2.63-7.177,7.392v4.186H151v5.492h4.824v13.277a19.206,19.206,0,0,0,5.938,0V117.07Z" transform="translate(-139.793 -92.578)" fill="#fff"/>
</svg>
