<svg xmlns="http://www.w3.org/2000/svg" width="23.635" height="21.486" viewBox="0 0 23.635 21.486">
  <g id="heart_fill" transform="translate(-64 -83)" fill="#ea5455">
    <path d="M 75.81736755371094 103.0590362548828 L 66.56053924560547 93.6268310546875 C 65.55418395996094 92.56098175048828 65 91.16249084472656 65 89.68804168701172 C 65 86.55164337158203 67.51126098632812 84 70.59801483154297 84 C 72.34268188476562 84 73.95522308349609 84.80260467529297 75.02215576171875 86.2020263671875 L 75.8173828125 87.24506378173828 L 76.61262512207031 86.20203399658203 C 77.67958068847656 84.8026123046875 79.29210662841797 84 81.03672027587891 84 C 84.12351989746094 84 86.63482666015625 86.55164337158203 86.63482666015625 89.68804168701172 C 86.63482666015625 91.25 86.02503204345703 92.70493316650391 84.91779327392578 93.78481292724609 L 84.90991973876953 93.79249572753906 L 84.9022216796875 93.80034637451172 L 75.81736755371094 103.0590362548828 Z" stroke="none"/>
    <path d="M 70.59801483154297 85 C 68.06266021728516 85 66 87.10305023193359 66 89.68804168701172 C 66 90.90304565429688 66.45494079589844 92.05501556396484 67.28136444091797 92.93364715576172 L 75.81729888916016 101.6312866210938 L 84.21959686279297 93.06892395019531 C 85.13220977783203 92.17884063720703 85.63482666015625 90.97816467285156 85.63482666015625 89.68804168701172 C 85.63482666015625 87.10305023193359 83.57212066650391 85 81.03672027587891 85 C 79.60671997070312 85 78.28404998779297 85.65911102294922 77.40785217285156 86.80834197998047 L 75.81737518310547 88.89440155029297 L 74.22692108154297 86.80832672119141 C 73.35074615478516 85.65911102294922 72.02806091308594 85 70.59801483154297 85 M 70.59801483154297 83 C 72.67839050292969 83 74.58643341064453 83.98116302490234 75.81739044189453 85.59572601318359 C 77.04838562011719 83.98116302490234 78.95643615722656 83 81.03672027587891 83 C 84.67428588867188 83 87.63482666015625 85.99937438964844 87.63482666015625 89.68804168701172 C 87.63482666015625 91.52617645263672 86.90856170654297 93.24008941650391 85.61600494384766 94.50070953369141 L 75.81739044189453 104.4862060546875 L 75.146484375 103.8031158447266 L 65.84029388427734 94.32061004638672 C 64.65237426757812 93.06621551513672 64 91.42060089111328 64 89.68804168701172 C 64 85.99937438964844 66.96046447753906 83 70.59801483154297 83 Z" stroke="none" fill="#ea5455"/>
  </g>
</svg>
