<svg xmlns="http://www.w3.org/2000/svg" width="18" height="18" viewBox="0 0 18 18">
  <g id="location_ic" transform="translate(-1.5 -1.5)">
    <path id="Path_48" data-name="Path 48" d="M17.179,9.893a6.679,6.679,0,0,0-6.071-6.041V2H9.893V3.852A6.679,6.679,0,0,0,3.852,9.893H2v1.214H3.852a6.679,6.679,0,0,0,6.041,6.071V19h1.214V17.179a6.679,6.679,0,0,0,6.071-6.071H19V9.893ZM10.5,15.964A5.464,5.464,0,1,1,15.964,10.5,5.464,5.464,0,0,1,10.5,15.964Z" fill="#002b5b" stroke="#002b5b" stroke-width="1"/>
    <path id="Path_49" data-name="Path 49" d="M14.429,12a2.429,2.429,0,1,0,2.429,2.429A2.429,2.429,0,0,0,14.429,12Zm0,3.643a1.214,1.214,0,1,1,1.214-1.214A1.214,1.214,0,0,1,14.429,15.643Z" transform="translate(-3.929 -3.929)" fill="#002b5b" stroke="#002b5b" stroke-width="1"/>
  </g>
</svg>
