<svg xmlns="http://www.w3.org/2000/svg" width="214" height="156.954" viewBox="0 0 214 156.954">
  <g id="logo_white" transform="translate(1297.083 98.098)">
    <text id="Maids_Nanny" data-name="Maids &amp; Nanny" transform="translate(-1297.083 52.856)" fill="#fff" font-size="29" font-family="CenturyGothic, Century Gothic"><tspan x="0" y="0">Maids &amp; Nanny</tspan></text>
    <text id="Maids_Nanny-2" data-name="Maids &amp; Nanny" transform="translate(-1297.083 52.856)" fill="#fff" font-size="29" font-family="CenturyGothic, Century Gothic"><tspan x="0" y="0">Maids &amp; Nanny</tspan></text>
    <g id="Group_26" data-name="Group 26" transform="translate(-1273.896 -98.098)">
      <path id="Path_9" data-name="Path 9" d="M818.71,70.582c-1.072-1.856.323-4.668,3.115-6.28a8.612,8.612,0,0,1,.932-.463,3.855,3.855,0,0,1,6.48-2.577,4.858,4.858,0,0,0,.052-.683,3.514,3.514,0,0,0-.774-2.11,5.744,5.744,0,0,0-2.323-1.736,9.117,9.117,0,0,0-3.738-.695,8.669,8.669,0,0,0-3.979.936,7.167,7.167,0,0,0-2.938,2.751,8.225,8.225,0,0,0-1.095,4.326q0,4.165,1.816,6.087a6.875,6.875,0,0,0,4.734,1.894A3.172,3.172,0,0,1,818.71,70.582Z" transform="translate(-729.998 -27.003)" fill="#fff"/>
      <path id="Path_10" data-name="Path 10" d="M865.316,40.155a49.7,49.7,0,0,0-7.87-9.269c-6.492-5.648-14.723-9.581-22.014-10.522a32.509,32.509,0,0,0-4.163-.267,35.241,35.241,0,0,0-16.91,4.423c-.992.5-3.667,2.081-3.857,2.186a20.108,20.108,0,0,0-13.734-5.782,17.256,17.256,0,0,0-13.812,6.238c-6.822-3.759-13.148-5.591-19.27-5.591-7.941,0-14.03,3.121-18.938,6.174-.567.354-1.18.684-1.757,1l-.58.315c-2.933-2.828-7.613-5.392-11.994-5.716q-.9-.065-1.739-.065a17.62,17.62,0,0,0-17.21,12.4c-.009.034-.018.068-.026.1a20.164,20.164,0,0,0-1.525,7.159c0,1.03.227,10.081,2.2,76.5,0,9,1.005,14.281,3.259,16.968,4.2,6,9.567,9.038,15.937,9.038h1.15a20.474,20.474,0,0,0,8.508-2.061,3.137,3.137,0,0,0,.4-.218c6.692-4.355,10.086-9.977,10.086-16.71v-2.092a13.393,13.393,0,0,0-.142-2.086,13.175,13.175,0,0,0,.142-2.1,174.254,174.254,0,0,1,4.293-38.842c2.3-8.028,3.828-11.315,4.711-12.659a3.044,3.044,0,0,0,.208-.368c1.591-3.338,3.321-5.031,5.145-5.031,2.749,0,5.309,2.3,7.713,6.822,2.422,5.082,5.123,11.063,5.993,18.013,1.133,9.062.545,19.529.88,31.23,0,9.451,1.171,12.661,2.053,14.247a22.3,22.3,0,0,0,19.682,11.83,21.774,21.774,0,0,0,9.446-1.558C818.689,140.334,822,135.1,822,127.4c.012-.281,1.441-39.291,4.714-52.143l.479-1.675c1.4-4.926,2.517-8.866,4.841-12.035A39.362,39.362,0,0,1,837.9,73.673a196.521,196.521,0,0,1,6.753,52.368,24.476,24.476,0,0,0,1.852,8.191c4.125,7.441,9.891,11.216,17.137,11.216h1.86a15.182,15.182,0,0,0,8.716-2.731A18.188,18.188,0,0,0,878.65,139a17.588,17.588,0,0,0,5.026-12.442V123.74c0-.035,0-.154,0-.225s0-.128,0-.193C884.064,61.475,865.775,40.812,865.316,40.155ZM816.471,75.57a11.528,11.528,0,0,1-1.495,5.715,10.975,10.975,0,0,1-4.833,4.352,13.077,13.077,0,0,1-1.411.6c1.2.26,2.008.722,2.008,1.255,0,.816-1.886,1.478-4.211,1.478s-4.21-.662-4.21-1.478a.573.573,0,0,1,.053-.185c-.231.006-.457.015-.694.015-.181,0-.353-.018-.532-.022a.573.573,0,0,1,.055.192c0,.816-1.886,1.478-4.211,1.478s-4.21-.662-4.21-1.478c0-.543.842-1.012,2.083-1.269-.211-.073-.429-.129-.635-.209a12.742,12.742,0,0,1-5.421-3.792,9.636,9.636,0,0,1,1.228-13.138,16.521,16.521,0,0,1,8.6-3.391,14.358,14.358,0,0,1-7.1-2.751,7.6,7.6,0,0,1,1.363-12.419,19.619,19.619,0,0,1,9.585-2.189,13.587,13.587,0,0,1,6.3,1.282,8.852,8.852,0,0,1,3.551,3.044,6.285,6.285,0,0,1,1.095,3.257,5.036,5.036,0,0,1-1.255,3.553,4.2,4.2,0,0,1-3.231,1.361c-.069,0-.131-.011-.2-.015a7.368,7.368,0,0,1-3.119,3.3,8.063,8.063,0,0,1-3.013,1.038h.51v1.067h-1.283a8.732,8.732,0,0,0-6.622,2.457q-2.351,2.458-2.35,7.69,0,9.882,9.292,9.881a15.134,15.134,0,0,0,5.288-.907,9.514,9.514,0,0,0,3.953-2.618,5.823,5.823,0,0,0,1.5-3.951,7.534,7.534,0,0,0-2-5.315,6.881,6.881,0,0,0-4.994-2.268,4.55,4.55,0,0,0-3.739,1.922l-.641-.107a5.786,5.786,0,0,1,.321-2.03,5.54,5.54,0,0,1,2.084-2.884,5.821,5.821,0,0,1,3.471-1.067,6.915,6.915,0,0,1,2.3.373q1.068.374,2.563,1.069a16.756,16.756,0,0,0,2.057.935,5,5,0,0,0,1.681.294q2.777,0,3.366-1.977l.641.107a8.757,8.757,0,0,1,.107,1.069,4.421,4.421,0,0,1-1.121,3.1,5.548,5.548,0,0,1-2.778,1.655A8.024,8.024,0,0,1,816.471,75.57ZM799.049,34.587a1.525,1.525,0,0,1,.308-.163,1.378,1.378,0,0,1,1.023,0,1.874,1.874,0,0,1,1.915-1.283h.023a1.868,1.868,0,0,1,1.892,1.282,1.38,1.38,0,0,1,1.024,0,1.468,1.468,0,0,1,.543.361,1.036,1.036,0,0,1,.282,1.067l.008.006a.8.8,0,0,1,.318,1.164l-.061.077c-.064-.051-.131-.1-.2-.143a6.551,6.551,0,0,0-.719-.468,6.447,6.447,0,0,0-1.674-.637l-.012,0c-.141-.032-.284-.057-.427-.08a6.635,6.635,0,0,0-.978-.077,6.5,6.5,0,0,0-1.45.157l-.011,0a6.452,6.452,0,0,0-1.675.637,6.536,6.536,0,0,0-.885.59l-.029.021-.061-.077a.8.8,0,0,1,.318-1.164l.009-.006A1.108,1.108,0,0,1,799.049,34.587Zm3.245,2.045a5.3,5.3,0,1,1-5.3,5.3A5.3,5.3,0,0,1,802.294,36.632Zm-26.04,32.021q-4.5-8.464-10.348-8.467h-.1q-4.7,0-7.945,6.8-2.2,3.347-5.122,13.588a176.5,176.5,0,0,0-4.39,39.615v6.273c0,5.644-2.636,10.779-8.677,14.112-2.487,1.371-8.362,1.777-8.362,1.777-5.367,0-9.4-1.952-13.333-6.948-1.618-2.053-2.765-7.9-2.765-16.048-1.226-41.372-2.618-61.517-2.195-74.205.081-2.443-.738-8.668,4.842-14.6,2.218-2.357,5.756-4.169,10.819-4.169a16,16,0,0,1,13.19,6.847c.012-.016.009-.032.021-.048.593-.795,11.078-8.807,21.8-8.5,5.035.078,10.623.835,19.9,6.884a17.786,17.786,0,0,0-1.4,3.22l-.011.036-.013.046,0,.013,0,0a14.643,14.643,0,0,0-.726,4.589q0,5.306,1.164,47.407c.01.375.021.766.031,1.145-.01-.09-.016-.183-.027-.272C781.71,80.545,778.935,74.273,776.254,68.653Z" transform="translate(-709.915 -20.098)" fill="#fff"/>
    </g>
  </g>
</svg>
