<svg xmlns="http://www.w3.org/2000/svg" width="104" height="81.196" viewBox="0 0 104 81.196">
  <g id="logo" transform="translate(4169.626 1347.273)">
    <g id="Group_21" data-name="Group 21" transform="translate(-4163.285 -1347.273)">
      <path id="Path_13" data-name="Path 13" d="M132.453,72.448l0-.1c0-13.677-1.5-24.985-4.868-34.145a44.014,44.014,0,0,0-3.022-6.509,40.167,40.167,0,0,0-5.753-7.331,22.979,22.979,0,0,0-11.5-5.493,17.2,17.2,0,0,0-2.178-.14A18.432,18.432,0,0,0,96.3,21.04c-.526.266-1.094.591-1.628.931l-.246.133A10.952,10.952,0,0,0,88.2,19.189,9.334,9.334,0,0,0,80.09,22.33a20.645,20.645,0,0,0-9.926-2.839,18.264,18.264,0,0,0-9.9,3.224c-.29.181-.6.351-.9.511l-.169.092a10.987,10.987,0,0,0-6.226-2.912q-.472-.033-.913-.033a9.317,9.317,0,0,0-9.1,6.566l-.008.031a10.67,10.67,0,0,0-.8,3.779c0,.559.13,5.563,1.137,39.586,0,4.733.534,7.479,1.722,8.9,2.218,3.16,5.047,4.763,8.411,4.763h.6a10.8,10.8,0,0,0,4.485-1.086,1.632,1.632,0,0,0,.232-.127c3.523-2.292,5.309-5.258,5.309-8.814V72.882a7.481,7.481,0,0,0-.069-1.078,7.351,7.351,0,0,0,.069-1.084,90.065,90.065,0,0,1,2.214-20.045c1.18-4.126,1.963-5.811,2.411-6.494a1.684,1.684,0,0,0,.124-.216c.785-1.651,1.62-2.488,2.48-2.488,1.326,0,2.609,1.151,3.81,3.415a32.832,32.832,0,0,1,3.083,9.24c.555,5.554.282,10.106.454,16.155,0,4.943.62,6.63,1.087,7.468a11.609,11.609,0,0,0,10.36,6.224h.486a11.614,11.614,0,0,0,3.483-.473,5.165,5.165,0,0,0,1.009-.352c3.76-1.869,5.511-4.634,5.513-8.734.08-2.09.827-20.6,2.428-26.894l.247-.868a20.211,20.211,0,0,1,2.318-5.944,20.848,20.848,0,0,1,2.836,5.989,101.471,101.471,0,0,1,3.486,27.046,11.481,11.481,0,0,0,.874,4.1,1.525,1.525,0,0,0,.11.238c2.173,3.92,5.215,5.908,9.042,5.908h.964a8.043,8.043,0,0,0,4.612-1.441,9.622,9.622,0,0,0,2.338-1.957,9.3,9.3,0,0,0,2.655-6.575l0-1.509Zm-.2-.106q0,.051,0,.1c0,.036,0,.1,0,.116v1.46a9.1,9.1,0,0,1-2.6,6.438,9.42,9.42,0,0,1-2.293,1.922,7.86,7.86,0,0,1-4.511,1.413h-.963c-3.749,0-6.733-1.953-8.868-5.8a12.666,12.666,0,0,1-.958-4.238,101.7,101.7,0,0,0-3.494-27.1,20.377,20.377,0,0,0-3.034-6.275c-1.2,1.64-1.781,3.678-2.5,6.227l-.247.867c-1.693,6.651-2.433,26.836-2.439,26.982,0,3.985-1.716,6.693-5.4,8.522a11.268,11.268,0,0,1-4.888.806,11.537,11.537,0,0,1-10.185-6.121c-.456-.821-1.063-2.481-1.062-7.372-.173-6.054.131-11.471-.455-16.16a30.255,30.255,0,0,0-3.1-9.321c-1.244-2.342-2.568-3.53-3.991-3.53-.944,0-1.839.876-2.662,2.6a1.573,1.573,0,0,1-.107.19c-.457.7-1.25,2.4-2.438,6.551a90.163,90.163,0,0,0-2.221,20.1,6.822,6.822,0,0,1-.074,1.085,6.92,6.92,0,0,1,.074,1.079v1.082c0,3.484-1.756,6.393-5.219,8.647a1.57,1.57,0,0,1-.2.113,10.593,10.593,0,0,1-4.4,1.066h-.6c-3.3,0-6.071-1.573-8.247-4.677-1.166-1.39-1.687-4.123-1.686-8.78-1.019-34.37-1.137-39.053-1.137-39.586a10.426,10.426,0,0,1,.79-3.7c0-.017.008-.035.013-.052a9.118,9.118,0,0,1,8.905-6.418q.436,0,.9.033a10.84,10.84,0,0,1,6.207,2.958l.3-.163c.3-.162.615-.333.909-.516a18.089,18.089,0,0,1,9.8-3.195,20.585,20.585,0,0,1,9.971,2.893,8.93,8.93,0,0,1,7.147-3.228,10.405,10.405,0,0,1,7.107,2.992c.1-.054,1.483-.871,2-1.131a18.238,18.238,0,0,1,8.751-2.289,16.815,16.815,0,0,1,2.154.138,22.772,22.772,0,0,1,11.392,5.445,25.7,25.7,0,0,1,4.073,4.8C122.992,29.647,132.456,40.34,132.255,72.343Z" transform="translate(-42.14 -18.727)" fill="#dbdbdb"/>
    </g>
    <text id="Maids_Nanny" data-name="Maids &amp; Nanny" transform="translate(-4169.626 -1269.077)" fill="#002b5b" font-size="14" font-family="CenturyGothic, Century Gothic"><tspan x="0" y="0">Maids &amp; Nanny</tspan></text>
    <path id="Path_14" data-name="Path 14" d="M81.571,30.4h0a9.3,9.3,0,0,1,.973-2.117h0l0,0c-9.417-5.843-15.161-3.486-19.6-.727a10.657,10.657,0,0,0-2.214,1.6l0,0a7.864,7.864,0,0,0-4.412-3.183,5.506,5.506,0,0,0-1.9-.354h-.434c-.045,0-.088,0-.133.005-4.674-.085-6.842,2.621-7.784,5.78a7.151,7.151,0,0,0-.755,2.836c0,.168.036.854.1,2.038a26.907,26.907,0,0,0,.168,3.207c.313,6.11.852,17.523,1.349,34.258,0,4.219.626,7.088,1.431,8.3a7.567,7.567,0,0,0,7.495,3.6,8.128,8.128,0,0,0,8.222-8.222V74.172a91.331,91.331,0,0,1,2.272-20.5A29.587,29.587,0,0,1,69,46.642q1.675-3.515,4.111-3.517h.053q3.029,0,5.355,4.382A46.038,46.038,0,0,1,81.8,57.3q-.6-21.781-.6-24.531A7.565,7.565,0,0,1,81.571,30.4Z" transform="translate(-4207.272 -1369.453)" fill="#ea5455"/>
    <g id="Group_22" data-name="Group 22" transform="translate(-4126.077 -1345.443)">
      <path id="Path_15" data-name="Path 15" d="M149.36,63.564c-.555-.961.167-2.415,1.612-3.25a4.466,4.466,0,0,1,.483-.24,2,2,0,0,1,3.353-1.334,2.58,2.58,0,0,0,.027-.353,1.821,1.821,0,0,0-.4-1.092,2.978,2.978,0,0,0-1.2-.9,4.72,4.72,0,0,0-1.935-.36,4.487,4.487,0,0,0-2.059.484,3.708,3.708,0,0,0-1.52,1.423,4.252,4.252,0,0,0-.566,2.239,4.469,4.469,0,0,0,.94,3.15,3.557,3.557,0,0,0,2.45.98A1.64,1.64,0,0,1,149.36,63.564Z" transform="translate(-140.462 -42.27)" fill="#002b5b"/>
      <path id="Path_16" data-name="Path 16" d="M182.45,74.89q0-20.295-4.964-33.789h0a7.318,7.318,0,0,0-.529-1.344,38.753,38.753,0,0,0-2.713-5.48,20.8,20.8,0,0,0-4.312-5.545c-3.524-3.025-7.477-5.151-11.047-5.527a17.116,17.116,0,0,0-12.965,3.821l-.005.008a8.983,8.983,0,0,0-6.05-3.5,7.606,7.606,0,0,0-7.369,3.837,9.3,9.3,0,0,0-.973,2.117h0a7.565,7.565,0,0,0-.376,2.374q0,2.746.6,24.531.2,7.167.461,16.392,0,5.089.861,6.638c1.844,3.439,5.953,5.675,8.789,5.675A17.748,17.748,0,0,0,146.3,84.4c3.269-1.623,4.233-4.187,4.233-7.4,0,0,.733-20.482,2.489-27.378.912-3.17,1.541-5.8,3.234-7.935.724-.915,1.6-.641,2.521.471a17.228,17.228,0,0,1,1.709,2.922c.421.92.835,1.969,1.231,3.117q.088.254.174.514a94.89,94.89,0,0,1,2.345,11.006,105.017,105.017,0,0,1,1.048,14.954q-.053.887-.051,1.991a10.3,10.3,0,0,0,.659,3.152,8.755,8.755,0,0,0,3.517,3.636,7.431,7.431,0,0,0,4.275,1.284h.963a6.269,6.269,0,0,0,3.647-1.161,6.81,6.81,0,0,0,3.659-4.245,7.665,7.665,0,0,0,.493-2.762v-1.46c0-.04,0-.082,0-.122S182.45,74.923,182.45,74.89ZM139.992,30l0,0a.574.574,0,0,1,.268-.655.79.79,0,0,1,.159-.084.714.714,0,0,1,.53,0,.969.969,0,0,1,.991-.664h.011a.966.966,0,0,1,.979.663.714.714,0,0,1,.53,0,.753.753,0,0,1,.281.187.536.536,0,0,1,.146.552l0,0a.412.412,0,0,1,.165.6l-.032.04c-.033-.026-.068-.049-.1-.074A3.22,3.22,0,0,0,142.688,30l-.006,0c-.073-.016-.147-.03-.221-.041a3.425,3.425,0,0,0-.506-.04,3.359,3.359,0,0,0-.75.081l-.006,0a3.3,3.3,0,0,0-1.324.635l-.015.011-.032-.04A.412.412,0,0,1,139.992,30Zm1.952.4a2.745,2.745,0,1,1-2.745,2.745A2.745,2.745,0,0,1,141.943,30.4Zm8.635,18.3a2.871,2.871,0,0,1-1.437.857,4.175,4.175,0,0,1,.138.995,5.961,5.961,0,0,1-.774,2.957,5.675,5.675,0,0,1-2.5,2.252,6.724,6.724,0,0,1-.73.31c.621.135,1.038.374,1.038.649,0,.422-.975.765-2.178.765s-2.179-.342-2.179-.765a.3.3,0,0,1,.028-.1c-.12,0-.237.008-.359.008-.094,0-.183-.009-.276-.011a.3.3,0,0,1,.028.1c0,.422-.975.765-2.178.765s-2.179-.342-2.179-.765c0-.281.436-.524,1.078-.657-.109-.038-.222-.067-.329-.108a6.6,6.6,0,0,1-2.805-1.962,4.986,4.986,0,0,1,.635-6.8,8.551,8.551,0,0,1,4.45-1.755,7.431,7.431,0,0,1-3.676-1.423,3.642,3.642,0,0,1-1.354-3,3.679,3.679,0,0,1,2.059-3.427,10.155,10.155,0,0,1,4.96-1.133,7.032,7.032,0,0,1,3.262.663,4.58,4.58,0,0,1,1.838,1.575,3.252,3.252,0,0,1,.566,1.686,2.608,2.608,0,0,1-.65,1.839,2.172,2.172,0,0,1-1.673.7c-.036,0-.068-.006-.1-.008a3.811,3.811,0,0,1-1.614,1.709,4.17,4.17,0,0,1-1.559.537h.264v.552h-.663a4.518,4.518,0,0,0-3.427,1.271,5.588,5.588,0,0,0-1.216,3.979q0,5.114,4.808,5.113a7.834,7.834,0,0,0,2.736-.469,4.923,4.923,0,0,0,2.045-1.355,3.015,3.015,0,0,0,.773-2.045,3.9,3.9,0,0,0-1.036-2.75,3.56,3.56,0,0,0-2.584-1.174,2.354,2.354,0,0,0-1.934.995l-.332-.055a2.994,2.994,0,0,1,.166-1.051,2.865,2.865,0,0,1,1.078-1.492,3.012,3.012,0,0,1,1.8-.552,3.582,3.582,0,0,1,1.188.193q.552.194,1.326.553a8.67,8.67,0,0,0,1.064.484,2.585,2.585,0,0,0,.87.152q1.437,0,1.742-1.023l.331.055a4.549,4.549,0,0,1,.056.553A2.286,2.286,0,0,1,150.578,48.7Z" transform="translate(-131.148 -23.104)" fill="#002b5b"/>
    </g>
    <path id="Path_17" data-name="Path 17" d="M84.117,27.551c4.436-2.759,10.18-5.116,19.6.727,0,0-.433.793-.475.869a7.364,7.364,0,0,0-.5,1.251c-2.07-1.625-3.313-3.422-8.884-3.9-4.031-.349-9.581,1.895-11.953,3.9a1.047,1.047,0,0,1,0-1.249A10.657,10.657,0,0,1,84.117,27.551Z" transform="translate(-4228.442 -1369.453)" fill="#c94148"/>
    <path id="Path_18" data-name="Path 18" d="M45.653,42.266a73.417,73.417,0,0,1-.34-7.366c0-4.192,3.014-8.436,9.365-7.909a7.95,7.95,0,0,1,6.186,3.736c.224.457.071.665-.131,1,0,0-8.176-7.51-13,.582a13.011,13.011,0,0,0-1.085,4.417C46.279,39.3,45.653,42.266,45.653,42.266Z" transform="translate(-4207.272 -1370.783)" fill="#c94148"/>
    <path id="Path_19" data-name="Path 19" d="M179.153,23.2c3.57.376,7.478,2.316,11.24,5.04,3.851,2.789,7.505,12.761,7.362,12.856-6.227-11.609-14.069-15.153-19.641-15.635-4.031-.349-9.553.8-11.926,2.809a1.049,1.049,0,0,1,0-1.249A17.118,17.118,0,0,1,179.153,23.2Z" transform="translate(-4277.493 -1368.547)" fill="#031f38"/>
    <path id="Path_20" data-name="Path 20" d="M132.044,30.059s1.777-6.441,8.342-5.955c2.563.19,5.452,2.242,6.186,3.736.224.457.071.665-.131,1a9.971,9.971,0,0,0-7.412-2.731C136.736,26.227,134.435,27.465,132.044,30.059Z" transform="translate(-4257.746 -1369.114)" fill="#031f38"/>
    <path id="Path_21" data-name="Path 21" d="M105.417,20.813a15.24,15.24,0,0,1,1.949.124A21.3,21.3,0,0,1,117.91,26a25.064,25.064,0,0,1,3.812,4.506c.224.321.446.655.665,1,.426.66.676,1.091.676,1.091-.018-.023-.036-.042-.054-.064a41.564,41.564,0,0,1,2.96,6.3q4.963,13.494,4.964,33.789c0,.027,0,.052,0,.079,0,.045,0,.092,0,.137V74.3a7.518,7.518,0,0,1-2.185,5.36,7.786,7.786,0,0,1-1.969,1.647,6.268,6.268,0,0,1-3.647,1.161h-.963q-4.707,0-7.465-4.977a8.409,8.409,0,0,1-.757-3.407V74.03a102.846,102.846,0,0,0-3.57-27.585c-1.029-3.228-2.076-5.617-3.738-7.176a1.482,1.482,0,0,0-.883-.434,1.334,1.334,0,0,0-1.015.587c-1.692,2.138-2.321,4.765-3.234,7.935-1.755,6.9-2.489,27.378-2.489,27.378,0,3.208-1.964,8.115-8.683,7.723a10,10,0,0,1-8.783-5.3q-.862-1.55-.861-6.638c-.175-6.12.126-11.586-.459-16.313a31.931,31.931,0,0,0-3.284-9.874q-2.326-4.381-5.355-4.382h-.054q-2.434,0-4.111,3.517A29.568,29.568,0,0,0,64.78,50.5,91.331,91.331,0,0,0,62.509,71v3.246a8.045,8.045,0,0,1-4.49,7.3,14.516,14.516,0,0,1-4.327.92c-2.777,0-4.861-1.01-6.9-3.6-.837-1.062-1.43-4.085-1.43-8.3-.635-21.408-1.355-31.832-1.136-38.4a9.75,9.75,0,0,1,2.506-7.554,7.419,7.419,0,0,1,5.6-2.157A8.278,8.278,0,0,1,59.155,26c.006-.009,0-.017.011-.025.307-.412,5.733-4.558,11.279-4.4,2.634.041,5.557.436,10.453,3.66,1.168-1.6,2.836-4,6.666-3.995.252,0,.513.009.782.029a8.92,8.92,0,0,1,6.044,3.514c.005-.009,0-.017.01-.025.212-.284,4.064-3.567,11.017-3.946m0-1.6h0a18.237,18.237,0,0,0-8.75,2.289c-.513.26-1.9,1.077-2,1.131a10.405,10.405,0,0,0-7.107-2.992,8.93,8.93,0,0,0-7.147,3.228,20.585,20.585,0,0,0-9.971-2.893,18.089,18.089,0,0,0-9.8,3.195c-.294.183-.611.354-.909.516l-.3.163a10.839,10.839,0,0,0-6.207-2.958q-.463-.034-.9-.033a9.118,9.118,0,0,0-8.905,6.418c-.005.018-.01.035-.013.052a10.426,10.426,0,0,0-.79,3.7c0,.533.117,5.216,1.137,39.586,0,4.657.52,7.39,1.686,8.78,2.176,3.1,4.951,4.677,8.247,4.677h.6a10.593,10.593,0,0,0,4.4-1.066,1.568,1.568,0,0,0,.2-.113c3.463-2.254,5.219-5.163,5.219-8.647V73.164a6.92,6.92,0,0,0-.074-1.079A6.822,6.822,0,0,0,64.113,71a90.163,90.163,0,0,1,2.221-20.1c1.188-4.154,1.981-5.855,2.438-6.551a1.632,1.632,0,0,0,.107-.19c.824-1.727,1.719-2.6,2.662-2.6,1.423,0,2.747,1.188,3.991,3.53a30.248,30.248,0,0,1,3.1,9.321c.587,4.689.282,10.105.455,16.16,0,4.891.607,6.551,1.062,7.372a11.537,11.537,0,0,0,10.185,6.121,11.269,11.269,0,0,0,4.888-.806c3.684-1.829,5.4-4.537,5.4-8.522.006-.146.746-20.331,2.439-26.982l.247-.867c.724-2.549,1.3-4.588,2.5-6.227a20.377,20.377,0,0,1,3.034,6.275,101.693,101.693,0,0,1,3.494,27.1,12.66,12.66,0,0,0,.958,4.238c2.134,3.851,5.118,5.8,8.868,5.8h.963a7.86,7.86,0,0,0,4.511-1.413,9.42,9.42,0,0,0,2.293-1.922,9.1,9.1,0,0,0,2.6-6.438v-1.46c0-.018,0-.08,0-.116s0-.066,0-.1c.2-32-9.262-42.7-9.5-43.036a25.712,25.712,0,0,0-4.073-4.8,22.772,22.772,0,0,0-11.392-5.445,16.893,16.893,0,0,0-2.154-.138Z" transform="translate(-4205.706 -1366.281)" fill="#fff"/>
  </g>
</svg>
