<svg xmlns="http://www.w3.org/2000/svg" width="25.311" height="17.718" viewBox="0 0 25.311 17.718">
  <g id="menu" transform="translate(-2 -5)">
    <path id="Path_88490" data-name="Path 88490" d="M24.655,18.269a1.26,1.26,0,0,1-1.255,1.26H13.259a1.26,1.26,0,1,1,0-2.519H23.4A1.26,1.26,0,0,1,24.655,18.269Z" transform="translate(2.655 3.189)" fill="#ea5455"/>
    <path id="Path_88491" data-name="Path 88491" d="M27.311,12.264a1.259,1.259,0,0,1-1.259,1.259H3.259a1.26,1.26,0,1,1,0-2.519H26.051a1.259,1.259,0,0,1,1.26,1.26Z" transform="translate(0 1.595)" fill="#ea5455"/>
    <path id="Path_88492" data-name="Path 88492" d="M24.458,7.519a1.26,1.26,0,0,0,0-2.519H9.259a1.26,1.26,0,0,0,0,2.519Z" transform="translate(1.593)" fill="#ea5455"/>
  </g>
</svg>
