<svg xmlns="http://www.w3.org/2000/svg" width="131" height="174.297" viewBox="0 0 131 174.297">
  <g id="premium-icon" transform="translate(0.001 0.004)">
    <path id="Path_55" data-name="Path 55" d="M80.28.008a13.23,13.23,0,0,1,7.959,2.5c3.11,1.973,6.611,5.869,10.932,8.34,6.08,3.477,17.343-1.317,23.11,7.251a21.591,21.591,0,0,1,2.358,4.515L107.514,35.269A35.656,35.656,0,0,0,50.238,77.488L34.889,88.948c-.83-4.5.31-8.156-1.633-12.651-1.211-2.8-6.444-5.26-8.928-9.68-3.644-6.492-2.171-12.719,4.9-22.073,4.27-5.652,5.005-9.493,5.274-13.665.252-3.872.412-7.789,3.773-12.783,5.767-8.568,17.03-3.773,23.107-7.251,4.325-2.47,7.826-6.366,10.936-8.34A13.23,13.23,0,0,1,80.28.008Zm.98,39.46,5.22,12.222,13.236,1.188a1.063,1.063,0,0,1,.609,1.858L90.31,63.479l2.964,12.96a1.065,1.065,0,0,1-1.62,1.126l-11.375-6.8L68.867,77.59a1.066,1.066,0,0,1-1.582-1.15l2.964-12.96L60.232,54.735a1.065,1.065,0,0,1,.643-1.861l13.2-1.184L79.3,39.461A1.066,1.066,0,0,1,81.26,39.467Z" transform="translate(-14.781 0)" fill="#ea5455" fill-rule="evenodd"/>
    <path id="Path_56" data-name="Path 56" d="M148.8,66.48a27.505,27.505,0,0,1,1.415,8.261c.269,4.172,1,8.013,5.271,13.665,7.074,9.354,8.551,15.58,4.907,22.073-2.484,4.42-7.72,6.88-8.928,9.68-2.576,5.965.272,10.456-3.256,17.408a18.558,18.558,0,0,1-11.256,9.616c-4.246,1.368-8.5-.612-11.9.82-5.968,2.508-10.371,8.336-15.124,9.813a18.389,18.389,0,0,1-10.97,0C94.206,156.339,89.8,150.51,83.835,148c-3.4-1.432-7.656.548-11.9-.82a18.558,18.558,0,0,1-11.256-9.616,17.414,17.414,0,0,1-1.647-4.883L74.4,121.35a35.658,35.658,0,1,0,57.269-42.233L148.8,66.48Z" transform="translate(-38.945 -43.862)" fill="#ea5455" fill-rule="evenodd"/>
    <path id="Path_57" data-name="Path 57" d="M4.811,383.413l16.394-2.94,8.129,14.549c5.893,7.3,9.64-4.706,11.286-8.891L56.431,356.3c-3.651-1.255-8.037-4.91-12.559-9-9.007.187-17.4-1.375-23.573-9.241L2.123,373.171.544,376.543c-1.239,4.379-.585,7.275,4.267,6.87Zm121.377,0-16.394-2.94-8.129,14.549c-5.893,7.3-9.64-4.706-11.286-8.891L74.567,356.3c3.651-1.255,8.037-4.91,12.559-9,9.007.187,17.4-1.375,23.573-9.241l18.177,35.111,1.579,3.372c1.239,4.379.585,7.275-4.267,6.87Z" transform="translate(0 -223.035)" fill="#ea5455" fill-rule="evenodd"/>
  </g>
</svg>
