<svg xmlns="http://www.w3.org/2000/svg" width="60" height="60" viewBox="0 0 60 60">
  <g id="premium" transform="translate(0 -0.992)">
    <path id="Path_88314" data-name="Path 88314" d="M60,22.824c0-4.517-3.358-8.179-7.5-8.179S45,18.307,45,22.824a8.786,8.786,0,0,0,.153,1.636l-4.125,2.694-5.642-12.29a8.714,8.714,0,0,0-.109-11.506,7.066,7.066,0,0,0-10.551,0,8.714,8.714,0,0,0-.109,11.506l-5.642,12.29L14.848,24.46A8.788,8.788,0,0,0,15,22.824c.009-4.276-3-7.839-6.914-8.173s-7.4,2.672-8,6.9a8.181,8.181,0,0,0,5.7,9.219l1.5,14.746A5.589,5.589,0,0,0,5,50.087V55.54a5.241,5.241,0,0,0,5,5.453H50a5.241,5.241,0,0,0,5-5.453V50.087A5.588,5.588,0,0,0,52.7,45.515l1.5-14.746A8.063,8.063,0,0,0,60,22.824ZM52.5,20.1A2.737,2.737,0,1,1,50,22.824,2.62,2.62,0,0,1,52.5,20.1ZM30,6.467a2.62,2.62,0,0,1,2.5,2.726,2.509,2.509,0,1,1-5,0A2.62,2.62,0,0,1,30,6.467ZM20,33.729a2.36,2.36,0,0,0,.7-.109,2.565,2.565,0,0,0,1.54-1.4l6.867-14.951a6.882,6.882,0,0,0,.895.1,6.882,6.882,0,0,0,.895-.1l6.867,14.951a2.565,2.565,0,0,0,1.54,1.4,2.312,2.312,0,0,0,1.982-.278l6.477-4.228a7.542,7.542,0,0,0,1.477,1.041L47.762,44.634H12.238L10.75,30.155a7.542,7.542,0,0,0,1.477-1.041l6.477,4.228A2.345,2.345,0,0,0,20,33.729ZM7.5,20.1a2.737,2.737,0,0,1,0,5.453,2.737,2.737,0,0,1,0-5.453ZM10,55.54V50.087H50V55.54Z" transform="translate(0 0)" fill="#ea5455"/>
  </g>
</svg>
