<svg xmlns="http://www.w3.org/2000/svg" width="38.064" height="53.29" viewBox="0 0 38.064 53.29">
  <g id="save" transform="translate(-6 -2)">
    <path id="Path_45" data-name="Path 45" d="M34.548,55.29H15.516A9.516,9.516,0,0,1,6,45.774V11.516A9.516,9.516,0,0,1,15.516,2H34.548a9.516,9.516,0,0,1,9.516,9.516V45.774a9.516,9.516,0,0,1-9.516,9.516ZM15.516,5.806a5.71,5.71,0,0,0-5.71,5.71V45.774a5.71,5.71,0,0,0,5.71,5.71H34.548a5.71,5.71,0,0,0,5.71-5.71V11.516a5.71,5.71,0,0,0-5.71-5.71Z" transform="translate(0 0)" fill="#fff"/>
    <path id="Path_46" data-name="Path 46" d="M19.24,22.783a2.151,2.151,0,0,0,1.18-1.751V3.9a1.9,1.9,0,0,0-1.9-1.9h-5.71a9.135,9.135,0,0,0-2.379.324A1.9,1.9,0,0,0,9,4.227V21.032a1.915,1.915,0,0,0,3.254,1.351l2.455-2.474,2.455,2.474a1.637,1.637,0,0,0,2.074.4Z" transform="translate(2.709 0)" fill="#fff"/>
    <path id="Path_47" data-name="Path 47" d="M39.673,39.107,7.49,38.136,8.461,16.63c0,3.806,3.959,15.378,12.523,15.378,7.613,0,17.928-1.9,17.928-9.364Z" transform="translate(1.346 13.214)" fill="#fff"/>
  </g>
</svg>
