<svg xmlns="http://www.w3.org/2000/svg" width="45.096" height="60" viewBox="0 0 45.096 60">
  <g id="standard" transform="translate(0.001 0.004)">
    <path id="Path_55" data-name="Path 55" d="M42.326,0a4.554,4.554,0,0,1,2.74.86c1.071.679,2.276,2.021,3.763,2.871,2.093,1.2,5.97-.453,7.956,2.5A7.433,7.433,0,0,1,57.6,7.781l-5.9,4.357A12.274,12.274,0,0,0,31.985,26.672L26.7,30.617c-.286-1.55.107-2.808-.562-4.355-.417-.964-2.218-1.811-3.074-3.332-1.254-2.235-.747-4.378,1.688-7.6a7.747,7.747,0,0,0,1.816-4.7,7.733,7.733,0,0,1,1.3-4.4c1.985-2.949,5.862-1.3,7.954-2.5,1.489-.85,2.694-2.192,3.765-2.871A4.554,4.554,0,0,1,42.326,0Zm.337,13.584,1.8,4.207,4.556.409a.366.366,0,0,1,.21.64l-3.447,3.01,1.02,4.462a.367.367,0,0,1-.558.388l-3.916-2.34L38.4,26.707a.367.367,0,0,1-.545-.4l1.02-4.462-3.448-3.01a.367.367,0,0,1,.221-.641l4.545-.408,1.8-4.21a.367.367,0,0,1,.675,0Z" transform="translate(-19.779 0)" fill="#ea5455" fill-rule="evenodd"/>
    <path id="Path_56" data-name="Path 56" d="M89.934,66.48a9.468,9.468,0,0,1,.487,2.844,7.752,7.752,0,0,0,1.814,4.7c2.435,3.22,2.944,5.363,1.689,7.6-.855,1.522-2.658,2.368-3.074,3.332-.887,2.053.094,3.6-1.121,5.992a6.388,6.388,0,0,1-3.875,3.31c-1.462.471-2.927-.211-4.1.282-2.054.863-3.57,2.87-5.206,3.378a6.331,6.331,0,0,1-3.776,0c-1.636-.508-3.152-2.515-5.206-3.378-1.17-.493-2.635.189-4.1-.282a6.388,6.388,0,0,1-3.875-3.31,6,6,0,0,1-.567-1.681l5.291-3.9A12.275,12.275,0,1,0,84.035,70.83l5.9-4.35Z" transform="translate(-52.117 -58.697)" fill="#ea5455" fill-rule="evenodd"/>
    <path id="Path_57" data-name="Path 57" d="M1.655,353.672,7.3,352.66l2.8,5.009c2.029,2.514,3.318-1.62,3.885-3.061l5.443-10.269a15.166,15.166,0,0,1-4.323-3.1c-3.1.064-5.989-.473-8.115-3.181L.73,350.147l-.543,1.161c-.426,1.507-.2,2.5,1.469,2.365Zm41.783,0-5.643-1.012L35,357.669c-2.029,2.514-3.318-1.62-3.885-3.061l-5.443-10.269a15.166,15.166,0,0,0,4.323-3.1c3.1.064,5.989-.473,8.115-3.181l6.257,12.087.543,1.161c.426,1.507.2,2.5-1.469,2.365Z" transform="translate(0 -298.466)" fill="#ea5455" fill-rule="evenodd"/>
  </g>
</svg>
