<svg xmlns="http://www.w3.org/2000/svg" width="50" height="20.806" viewBox="0 0 50 20.806">
  <g id="stripe" transform="translate(0 -149.482)">
    <path id="Path_88292" data-name="Path 88292" d="M416.664,200.787c0-3.556-1.722-6.361-5.014-6.361s-5.306,2.806-5.306,6.333c0,4.181,2.361,6.292,5.75,6.292a7.743,7.743,0,0,0,3.847-.9V203.37a7.375,7.375,0,0,1-3.4.764c-1.347,0-2.542-.472-2.694-2.111h6.792C416.637,201.843,416.664,201.12,416.664,200.787Zm-6.861-1.319c0-1.569.958-2.222,1.833-2.222.847,0,1.75.653,1.75,2.222Z" transform="translate(-366.664 -40.555)" fill="#635bff" fill-rule="evenodd"/>
    <path id="Path_88293" data-name="Path 88293" d="M296.387,194.426a3.924,3.924,0,0,0-2.722,1.083l-.181-.861h-3.056v16.195l3.472-.736.014-3.931a3.911,3.911,0,0,0,2.458.875c2.486,0,4.75-2,4.75-6.4C301.11,196.62,298.818,194.426,296.387,194.426ZM295.554,204a2.076,2.076,0,0,1-1.639-.653l-.014-5.153a2.067,2.067,0,0,1,1.653-.681c1.264,0,2.139,1.417,2.139,3.236C297.693,202.607,296.832,204,295.554,204Z" transform="translate(-262.068 -40.555)" fill="#635bff" fill-rule="evenodd"/>
    <path id="Path_88294" data-name="Path 88294" d="M241.5,153.051l3.486-.75v-2.819l-3.486.736Z" transform="translate(-217.92)" fill="#635bff" fill-rule="evenodd"/>
    <rect id="Rectangle_3273" data-name="Rectangle 3273" width="3.486" height="12.153" transform="translate(23.583 154.107)" fill="#635bff"/>
    <path id="Path_88295" data-name="Path 88295" d="M173.469,196.545l-.222-1.028h-3V207.67h3.472v-8.236a2.449,2.449,0,0,1,2.639-.722v-3.194A2.358,2.358,0,0,0,173.469,196.545Z" transform="translate(-153.622 -41.41)" fill="#635bff" fill-rule="evenodd"/>
    <path id="Path_88296" data-name="Path 88296" d="M100.687,165.98,97.3,166.7l-.014,11.125a3.49,3.49,0,0,0,3.6,3.57,5.364,5.364,0,0,0,2.431-.458v-2.819c-.444.181-2.639.819-2.639-1.236v-4.931h2.639v-2.958h-2.639Z" transform="translate(-87.784 -14.887)" fill="#635bff" fill-rule="evenodd"/>
    <path id="Path_88297" data-name="Path 88297" d="M3.514,198.19c0-.542.444-.75,1.181-.75a7.747,7.747,0,0,1,3.444.889v-3.264a9.16,9.16,0,0,0-3.444-.639C1.875,194.426,0,195.9,0,198.357c0,3.833,5.278,3.222,5.278,4.875,0,.639-.556.847-1.333.847a8.646,8.646,0,0,1-3.792-1.111v3.306a9.628,9.628,0,0,0,3.792.792c2.889,0,4.875-1.431,4.875-3.917C8.806,199.009,3.514,199.745,3.514,198.19Z" transform="translate(0 -40.555)" fill="#635bff" fill-rule="evenodd"/>
  </g>
</svg>
