<svg id="thankyou" xmlns="http://www.w3.org/2000/svg" width="122.88" height="122.88" viewBox="0 0 122.88 122.88">
  <path id="Path_79" data-name="Path 79" d="M32.82,51.34l14.99-.2,1.12.29a57.691,57.691,0,0,1,8.54,5.99,58.568,58.568,0,0,1,5.5,5.32,216.879,216.879,0,0,1,17.16-23.9,205.67,205.67,0,0,1,21.05-21.9l1.46-.56H119l-3.3,3.66a350.587,350.587,0,0,0-27.64,34.9A341.168,341.168,0,0,0,65.7,92.13L63.64,96.1l-1.89-4.04A98.348,98.348,0,0,0,49.11,71.57,82.666,82.666,0,0,0,31.59,55.35l1.23-4.01Z" fill="#39b54a"/>
  <path id="Path_80" data-name="Path 80" d="M61.44,0A61.3,61.3,0,0,1,88.05,6.04c-3.3,2.61-6.36,5.11-9.21,7.53a50.877,50.877,0,1,0,32.58,38.09c2.64-3.44,5.35-6.88,8.11-10.28A61.456,61.456,0,1,1,61.44,0Z" fill="#ea5455"/>
</svg>
