<svg id="twitter" xmlns="http://www.w3.org/2000/svg" width="38" height="38" viewBox="0 0 38 38">
  <g id="Dark_Blue">
    <path id="Path_64" data-name="Path 64" d="M19,0h0A19,19,0,0,1,38,19h0A19,19,0,0,1,19,38h0A19,19,0,0,1,0,19H0A19,19,0,0,1,19,0Z" fill="#1da1f2"/>
  </g>
  <g id="Logo_FIXED">
    <path id="Path_65" data-name="Path 65" d="M195.159,265.4a13.774,13.774,0,0,0,13.866-13.866c0-.209,0-.422-.015-.631a9.906,9.906,0,0,0,2.432-2.523,9.68,9.68,0,0,1-2.8.768,4.885,4.885,0,0,0,2.143-2.694,9.75,9.75,0,0,1-3.093,1.182,4.876,4.876,0,0,0-8.3,4.442,13.842,13.842,0,0,1-10.043-5.092,4.877,4.877,0,0,0,1.509,6.506,4.848,4.848,0,0,1-2.212-.608v.061a4.874,4.874,0,0,0,3.91,4.777,4.892,4.892,0,0,1-2.2.084,4.884,4.884,0,0,0,4.552,3.386,9.763,9.763,0,0,1-6.05,2.09,9.086,9.086,0,0,1-1.159-.072,13.728,13.728,0,0,0,7.459,2.189" transform="translate(-180.567 -236.749)" fill="#fff"/>
    <path id="Path_66" data-name="Path 66" d="M19,0h0A19,19,0,0,1,38,19h0A19,19,0,0,1,19,38h0A19,19,0,0,1,0,19H0A19,19,0,0,1,19,0Z" fill="none"/>
  </g>
</svg>
