<svg xmlns="http://www.w3.org/2000/svg" width="20.885" height="20.885" viewBox="0 0 20.885 20.885">
  <g id="upload" transform="translate(0 -0.001)">
    <path id="Path_77" data-name="Path 77" d="M34.607,5.371a.49.49,0,0,0,.346-.148l3.555-3.55V14.849a.489.489,0,0,0,.979,0V1.672l3.555,3.55a.489.489,0,0,0,.687-.687L39.343.145a.489.489,0,0,0-.075-.062l-.038-.02a.489.489,0,0,0-.047-.024.489.489,0,0,0-.051-.016L39.094.011a.489.489,0,0,0-.193,0L38.86.024A.478.478,0,0,0,38.81.04a.489.489,0,0,0-.047.024l-.036.018a.489.489,0,0,0-.075.062L34.266,4.536a.489.489,0,0,0,.346.835Z" transform="translate(-28.555 0)" fill="#51667d"/>
    <path id="Path_78" data-name="Path 78" d="M20.4,88a.489.489,0,0,0-.489.489v3.59a1.468,1.468,0,0,1-1.468,1.468H2.447A1.468,1.468,0,0,1,.979,92.079v-3.59a.489.489,0,0,0-.979,0v3.59a2.447,2.447,0,0,0,2.447,2.447h15.99a2.447,2.447,0,0,0,2.447-2.447v-3.59A.489.489,0,0,0,20.4,88Z" transform="translate(0 -73.64)" fill="#51667d"/>
  </g>
</svg>
