<svg xmlns="http://www.w3.org/2000/svg" width="43.45" height="29.965" viewBox="0 0 43.45 29.965">
  <g id="visa" transform="translate(0 -79.451)">
    <path id="Path_87085" data-name="Path 87085" d="M43.45,106.847a2.568,2.568,0,0,1-2.568,2.569H2.568A2.568,2.568,0,0,1,0,106.847V82.019a2.568,2.568,0,0,1,2.568-2.568H40.881a2.568,2.568,0,0,1,2.568,2.568v24.828Z" transform="translate(0 0)" fill="#fff"/>
    <path id="Path_87086" data-name="Path 87086" d="M37.557,195.528l-1.02-4.894a1.217,1.217,0,0,0-1.316-.9H30.544l-.042.224C34.145,190.839,36.556,192.969,37.557,195.528Z" transform="translate(-27.914 -100.922)" fill="#f79f1a"/>
    <g id="Group_6970" data-name="Group 6970" transform="translate(0 79.451)">
      <path id="Path_87087" data-name="Path 87087" d="M188.409,190.892h-3.022L183.5,201.969h3.017Z" transform="translate(-167.927 -181.435)" fill="#059bbf"/>
      <path id="Path_87088" data-name="Path 87088" d="M71.735,202.039l4.753-11.058h-3.2l-2.957,7.555-.316-1.141a11.819,11.819,0,0,0-4.181-4.591l2.7,9.238Z" transform="translate(-60.249 -181.516)" fill="#059bbf"/>
      <path id="Path_87089" data-name="Path 87089" d="M249.976,196.3c.011-1.258-.8-2.217-2.536-3.009-1.057-.512-1.7-.853-1.694-1.372,0-.459.546-.952,1.728-.952a5.574,5.574,0,0,1,2.259.425l.273.125.41-2.4a7.827,7.827,0,0,0-2.707-.463c-2.984,0-5.084,1.5-5.1,3.655-.019,1.592,1.5,2.479,2.646,3.01,1.175.541,1.569.887,1.562,1.372-.008.742-.936,1.08-1.8,1.08a6.335,6.335,0,0,1-2.844-.581l-.386-.177-.424,2.482a9.525,9.525,0,0,0,3.362.588C247.891,200.089,249.953,198.606,249.976,196.3Z" transform="translate(-220.874 -179.391)" fill="#059bbf"/>
      <path id="Path_87090" data-name="Path 87090" d="M344.191,200.432l3.867,0c.091.386.368,1.66.368,1.66h2.8l-2.445-11.069H346.45a1.5,1.5,0,0,0-1.581.917L340.385,202.1h3.173S344.073,200.732,344.191,200.432Zm2.07-5.364c-.015.03.25-.641.4-1.058l.2.955s.576,2.646.7,3.2h-2.506C345.309,197.528,346.261,195.068,346.261,195.068Z" transform="translate(-311.499 -181.558)" fill="#059bbf"/>
      <path id="Path_87091" data-name="Path 87091" d="M40.881,79.451H2.568A2.568,2.568,0,0,0,0,82.019v2.666H43.45V82.019A2.568,2.568,0,0,0,40.881,79.451Z" transform="translate(0 -79.451)" fill="#059bbf"/>
    </g>
    <path id="Path_87092" data-name="Path 87092" d="M40.881,376.105H2.568A2.568,2.568,0,0,1,0,373.537v-2.666H43.45v2.666A2.568,2.568,0,0,1,40.881,376.105Z" transform="translate(0 -266.689)" fill="#f79f1a"/>
    <path id="Path_87093" data-name="Path 87093" d="M1.826,106.847V82.019a2.568,2.568,0,0,1,2.569-2.568H2.568A2.568,2.568,0,0,0,0,82.019v24.828a2.568,2.568,0,0,0,2.568,2.569H4.395A2.569,2.569,0,0,1,1.826,106.847Z" transform="translate(0 0)" fill="#202121" opacity="0.15"/>
  </g>
</svg>
