<svg id="whatsapp_ic" xmlns="http://www.w3.org/2000/svg" width="60" height="59.715" viewBox="0 0 60 59.715">
  <path id="Path_88312" data-name="Path 88312" d="M30,59.715h0A29.932,29.932,0,0,1,0,29.858H0A29.932,29.932,0,0,1,30,0h0A29.932,29.932,0,0,1,60,29.858h0A29.932,29.932,0,0,1,30,59.715Z" fill="#25d366"/>
  <g id="Group_6981" data-name="Group 6981" transform="translate(10.298 10.197)">
    <g id="WA_Logo">
      <g id="Group_6980" data-name="Group 6980">
        <path id="Path_88313" data-name="Path 88313" d="M203.771,176.557a19.629,19.629,0,0,0-30.888,23.68L170.1,210.407l10.4-2.729a19.573,19.573,0,0,0,9.376,2.389h.006a19.637,19.637,0,0,0,13.885-33.51Zm-13.879,30.2h-.006a16.261,16.261,0,0,1-8.3-2.275l-.6-.352-6.175,1.618,1.648-6.02-.388-.615a16.311,16.311,0,1,1,13.82,7.644Zm8.946-12.219c-.49-.245-2.9-1.433-3.35-1.595s-.776-.245-1.1.245-1.266,1.595-1.553,1.923-.573.37-1.063.125a13.338,13.338,0,0,1-3.942-2.437,14.891,14.891,0,0,1-2.729-3.4c-.287-.49-.03-.758.215-1,.221-.221.49-.573.735-.86a3.269,3.269,0,0,0,.49-.818.9.9,0,0,0-.042-.86c-.125-.245-1.1-2.658-1.511-3.643-.4-.956-.8-.824-1.1-.842-.287-.012-.615-.018-.938-.018a1.8,1.8,0,0,0-1.308.615,5.506,5.506,0,0,0-1.714,4.091,9.517,9.517,0,0,0,2,5.07c.245.328,3.458,5.279,8.379,7.405a28.017,28.017,0,0,0,2.795,1.033,6.7,6.7,0,0,0,3.088.2c.944-.143,2.9-1.188,3.309-2.329a4.149,4.149,0,0,0,.287-2.329C199.656,194.9,199.328,194.784,198.838,194.533Z" transform="translate(-170.1 -170.8)" fill="#fff" fill-rule="evenodd"/>
      </g>
    </g>
  </g>
</svg>
