<svg id="wts_ic" xmlns="http://www.w3.org/2000/svg" xmlns:xlink="http://www.w3.org/1999/xlink" width="17" height="17" viewBox="0 0 17 17">
  <defs>
    <linearGradient id="linear-gradient" x1="-0.144" y1="0.142" x2="0.83" y2="0.889" gradientUnits="objectBoundingBox">
      <stop offset="0" stop-color="#010101" stop-opacity="0.102"/>
      <stop offset="1" stop-color="#010101" stop-opacity="0"/>
    </linearGradient>
    <linearGradient id="linear-gradient-2" x1="0.012" y1="0.363" x2="0.919" y2="0.786" gradientUnits="objectBoundingBox">
      <stop offset="0" stop-color="#fff" stop-opacity="0.2"/>
      <stop offset="1" stop-color="#fff" stop-opacity="0"/>
    </linearGradient>
  </defs>
  <path id="Path_88301" data-name="Path 88301" d="M8.5,0A8.5,8.5,0,0,0,1.423,13.205L0,17l3.795-1.423A8.5,8.5,0,1,0,8.5,0Z" fill="#31b34a"/>
  <path id="Path_88302" data-name="Path 88302" d="M14.3,11.7s-.867-.426-1.411-.706c-.613-.314-1.336.276-1.677.613a4.259,4.259,0,0,1-1.422-.9,4.258,4.258,0,0,1-.9-1.422c.337-.341.929-1.063.613-1.677C9.223,7.065,8.8,6.2,8.8,6.2A.354.354,0,0,0,8.479,6H7.771A2.134,2.134,0,0,0,6,8.125c0,1.112,1.331,3.249,2.229,4.146S11.263,14.5,12.375,14.5A2.134,2.134,0,0,0,14.5,12.729v-.708A.354.354,0,0,0,14.3,11.7Z" transform="translate(-1.75 -1.75)" fill="#fff"/>
  <path id="Path_88303" data-name="Path 88303" d="M8.5.177A8.5,8.5,0,0,1,17,8.589c0-.03,0-.059,0-.089a8.5,8.5,0,0,0-17,0c0,.034,0,.067,0,.1A8.5,8.5,0,0,1,8.5.177Z" fill="#fff" opacity="0.2"/>
  <path id="Path_88304" data-name="Path 88304" d="M8.5,20.286a8.458,8.458,0,0,1-4.705-1.423L.077,20.257,0,20.464l3.795-1.423A8.5,8.5,0,0,0,17,11.964c0-.03,0-.059,0-.089A8.5,8.5,0,0,1,8.5,20.286Z" transform="translate(0 -3.464)" fill="#010101" opacity="0.1"/>
  <path id="Path_88305" data-name="Path 88305" d="M10.982,12.288a4.258,4.258,0,0,0,1.422.9c.341-.337,1.065-.928,1.677-.613.544.279,1.41.705,1.411.706a.354.354,0,0,1,.2.318v-.177a.354.354,0,0,0-.2-.318s-.867-.426-1.411-.706c-.613-.314-1.336.276-1.677.613a4.259,4.259,0,0,1-1.422-.9,4.128,4.128,0,0,1-.85-1.3l-.052.056A4.259,4.259,0,0,0,10.982,12.288Z" transform="translate(-2.94 -3.153)" fill="#fff" opacity="0.2"/>
  <path id="Path_88306" data-name="Path 88306" d="M9.5,7.609C9.223,7.065,8.8,6.2,8.8,6.2A.354.354,0,0,0,8.479,6H7.771A2.134,2.134,0,0,0,6,8.125c0,.024.009.054.01.079A2.121,2.121,0,0,1,7.771,6.177h.708a.354.354,0,0,1,.318.2s.426.867.706,1.411a.8.8,0,0,1,.08.317A.834.834,0,0,0,9.5,7.609Z" transform="translate(-1.75 -1.75)" fill="#fff" opacity="0.2"/>
  <path id="Path_88307" data-name="Path 88307" d="M8.229,13.106c.9.9,3.034,2.229,4.146,2.229A2.134,2.134,0,0,0,14.5,13.564v-.177a2.134,2.134,0,0,1-2.125,1.771c-1.112,0-3.249-1.331-4.146-2.229A8.635,8.635,0,0,1,6.01,8.862c0,.033-.01.065-.01.1C6,10.072,7.331,12.208,8.229,13.106Z" transform="translate(-1.75 -2.585)" fill="#010101" opacity="0.1"/>
  <path id="Path_88308" data-name="Path 88308" d="M9.72,6.172l0,.017c.017.021.041.034.053.059,0,0,.426.867.706,1.411.315.615-.276,1.337-.613,1.677a4.259,4.259,0,0,0,.9,1.422,4.258,4.258,0,0,0,1.422.9c.341-.337,1.065-.928,1.677-.613.544.279,1.41.705,1.411.706a.354.354,0,0,1,.2.318v.708a2.134,2.134,0,0,1-2.125,1.771c-1.063,0-3.05-1.213-4.009-2.1,1.105,1.132,4.148,4.242,5.49,5.543a8.523,8.523,0,0,0,3.566-3.14Z" transform="translate(-2.724 -1.8)" fill="url(#linear-gradient)"/>
  <path id="Path_88309" data-name="Path 88309" d="M8.5,0A8.5,8.5,0,0,0,1.423,13.205L0,17l3.795-1.423A8.5,8.5,0,1,0,8.5,0Z" fill="url(#linear-gradient-2)"/>
</svg>
