<svg id="wts_green" xmlns="http://www.w3.org/2000/svg" xmlns:xlink="http://www.w3.org/1999/xlink" width="46" height="46" viewBox="0 0 46 46">
  <defs>
    <linearGradient id="linear-gradient" x1="-0.144" y1="0.142" x2="0.83" y2="0.889" gradientUnits="objectBoundingBox">
      <stop offset="0" stop-color="#010101" stop-opacity="0.102"/>
      <stop offset="1" stop-color="#010101" stop-opacity="0"/>
    </linearGradient>
    <linearGradient id="linear-gradient-2" x1="0.012" y1="0.363" x2="0.919" y2="0.786" gradientUnits="objectBoundingBox">
      <stop offset="0" stop-color="#fff" stop-opacity="0.2"/>
      <stop offset="1" stop-color="#fff" stop-opacity="0"/>
    </linearGradient>
  </defs>
  <path id="Path_88301" data-name="Path 88301" d="M23,0A22.994,22.994,0,0,0,3.851,35.732L0,46l10.268-3.851A23,23,0,1,0,23,0Z" fill="#31b34a"/>
  <path id="Path_88302" data-name="Path 88302" d="M28.465,21.432s-2.347-1.153-3.818-1.909c-1.657-.851-3.616.748-4.539,1.659a11.523,11.523,0,0,1-3.846-2.443,11.523,11.523,0,0,1-2.443-3.846c.912-.922,2.513-2.876,1.659-4.539-.756-1.471-1.908-3.817-1.909-3.818A.959.959,0,0,0,12.708,6H10.792C8.634,6,6,8.653,6,11.75c0,3.01,3.6,8.791,6.031,11.219S20.24,29,23.25,29c3.1,0,5.75-2.634,5.75-4.792V22.292A.959.959,0,0,0,28.465,21.432Z" transform="translate(5.5 5.5)" fill="#fff"/>
  <path id="Path_88303" data-name="Path 88303" d="M23,.479A22.993,22.993,0,0,1,45.988,23.24c0-.081.012-.159.012-.24A23,23,0,0,0,0,23c0,.092.009.182.01.275A22.994,22.994,0,0,1,23,.479Z" fill="#fff" opacity="0.2"/>
  <path id="Path_88304" data-name="Path 88304" d="M23,34.635a22.885,22.885,0,0,1-12.732-3.851L.209,34.557,0,35.115l10.268-3.851A22.994,22.994,0,0,0,46,12.115c0-.081-.011-.159-.012-.24A22.993,22.993,0,0,1,23,34.635Z" transform="translate(0 10.885)" fill="#010101" opacity="0.1"/>
  <path id="Path_88305" data-name="Path 88305" d="M12.522,14.808a11.523,11.523,0,0,0,3.846,2.443c.923-.912,2.882-2.51,4.539-1.659,1.471.756,3.816,1.908,3.818,1.909a.959.959,0,0,1,.535.86v-.479a.959.959,0,0,0-.535-.86s-2.347-1.153-3.818-1.909c-1.657-.851-3.616.748-4.539,1.659a11.523,11.523,0,0,1-3.846-2.443,11.171,11.171,0,0,1-2.3-3.518c-.047.049-.1.106-.141.15A11.524,11.524,0,0,0,12.522,14.808Z" transform="translate(9.239 9.91)" fill="#fff" opacity="0.2"/>
  <path id="Path_88306" data-name="Path 88306" d="M15.478,10.354c-.756-1.471-1.908-3.816-1.909-3.818A.959.959,0,0,0,12.708,6H10.792C8.634,6,6,8.653,6,11.75c0,.065.024.147.027.214.147-2.979,2.67-5.485,4.764-5.485h1.917a.959.959,0,0,1,.86.535s1.153,2.347,1.909,3.818a2.154,2.154,0,0,1,.217.857A2.258,2.258,0,0,0,15.478,10.354Z" transform="translate(5.5 5.5)" fill="#fff" opacity="0.2"/>
  <path id="Path_88307" data-name="Path 88307" d="M12.031,20.346c2.429,2.429,8.21,6.031,11.219,6.031,3.1,0,5.75-2.634,5.75-4.792v-.479c0,2.157-2.653,4.792-5.75,4.792-3.01,0-8.791-3.6-11.219-6.031-2.376-2.376-5.854-7.946-6-11.005,0,.089-.027.175-.027.265C6,12.137,9.6,17.917,12.031,20.346Z" transform="translate(5.5 8.123)" fill="#010101" opacity="0.1"/>
  <path id="Path_88308" data-name="Path 88308" d="M10.367,6.172l-.006.046c.046.056.112.093.145.16,0,0,1.153,2.347,1.909,3.818.854,1.663-.747,3.617-1.659,4.539A11.523,11.523,0,0,0,13.2,18.582a11.523,11.523,0,0,0,3.846,2.443c.923-.912,2.882-2.51,4.539-1.659,1.471.756,3.816,1.908,3.818,1.909a.959.959,0,0,1,.535.86v1.917c0,2.157-2.653,4.792-5.75,4.792-2.877,0-8.254-3.282-10.847-5.693,2.991,3.064,11.224,11.48,14.855,15a23.062,23.062,0,0,0,9.649-8.5Z" transform="translate(8.563 5.657)" fill="url(#linear-gradient)"/>
  <path id="Path_88309" data-name="Path 88309" d="M23,0A22.994,22.994,0,0,0,3.851,35.732L0,46l10.268-3.851A23,23,0,1,0,23,0Z" fill="url(#linear-gradient-2)"/>
</svg>
